<svg width="75" height="90" viewBox="0 0 75 90" fill="none" xmlns="http://www.w3.org/2000/svg">
<path fill-rule="evenodd" clip-rule="evenodd" d="M28.9499 13.7408C28.9499 15.7144 27.3499 17.3143 25.3763 17.3143C23.4027 17.3143 21.8028 15.7144 21.8028 13.7408C21.8028 11.7672 23.4027 10.1672 25.3763 10.1672C27.3499 10.1672 28.9499 11.7672 28.9499 13.7408ZM26.9499 13.7408C26.9499 14.6098 26.2454 15.3143 25.3763 15.3143C24.5073 15.3143 23.8028 14.6098 23.8028 13.7408C23.8028 12.8717 24.5073 12.1672 25.3763 12.1672C26.2454 12.1672 26.9499 12.8717 26.9499 13.7408Z" fill="#907970"/>
<path fill-rule="evenodd" clip-rule="evenodd" d="M20.3972 28.7339V20.9397C18.1174 19.3597 16.6243 16.7247 16.6243 13.7408C16.6243 8.907 20.5429 4.9884 25.3767 4.9884C25.6246 4.9884 25.8702 4.99871 26.1129 5.01893C29.1146 2.35302 33.0668 0.733887 37.3972 0.733887H38.3972C47.7861 0.733887 55.3972 8.34505 55.3972 17.7339V28.7339C55.3972 38.1227 47.7861 45.7339 38.3972 45.7339H37.3972C28.0084 45.7339 20.3972 38.1227 20.3972 28.7339ZM37.3972 2.73389H38.3972C46.5064 2.73389 53.1126 9.1687 53.3883 17.2107H33.4144C33.8743 16.1468 34.1291 14.9736 34.1291 13.7408C34.1291 10.0392 31.8312 6.87424 28.584 5.59472C31.0582 3.7953 34.1038 2.73389 37.3972 2.73389ZM25.3767 22.4933C28.1409 22.4933 30.6058 21.2119 32.2098 19.2107H53.3972V28.7339C53.3972 37.0182 46.6815 43.7339 38.3972 43.7339H37.3972C29.1129 43.7339 22.3972 37.0182 22.3972 28.7339V21.9731C23.3272 22.3097 24.3305 22.4933 25.3767 22.4933ZM25.3767 20.4933C29.106 20.4933 32.1291 17.4701 32.1291 13.7408C32.1291 10.0116 29.106 6.9884 25.3767 6.9884C21.6474 6.9884 18.6243 10.0116 18.6243 13.7408C18.6243 17.4701 21.6474 20.4933 25.3767 20.4933Z" fill="#907970"/>
<path d="M52.8972 64.7339V69.2339H57.3972C57.9495 69.2339 58.3972 69.6816 58.3972 70.2339C58.3972 70.7862 57.9495 71.2339 57.3972 71.2339H52.8972V75.7339C52.8972 76.2862 52.4495 76.7339 51.8972 76.7339C51.3449 76.7339 50.8972 76.2862 50.8972 75.7339V71.2339H46.3972C45.8449 71.2339 45.3972 70.7862 45.3972 70.2339C45.3972 69.6816 45.8449 69.2339 46.3972 69.2339H50.8972V64.7339C50.8972 64.1816 51.3449 63.7339 51.8972 63.7339C52.4495 63.7339 52.8972 64.1816 52.8972 64.7339Z" fill="#907970"/>
<path fill-rule="evenodd" clip-rule="evenodd" d="M47.3972 61.7339V65.7339H43.3972C42.2926 65.7339 41.3972 66.6293 41.3972 67.7339V72.7339C41.3972 73.8385 42.2926 74.7339 43.3972 74.7339H47.3972V78.7339C47.3972 79.8385 48.2926 80.7339 49.3972 80.7339H54.3972C55.5018 80.7339 56.3972 79.8385 56.3972 78.7339V74.7339H60.3972C61.5018 74.7339 62.3972 73.8385 62.3972 72.7339V67.7339C62.3972 66.6293 61.5018 65.7339 60.3972 65.7339H56.3972V61.7339C56.3972 60.6293 55.5018 59.7339 54.3972 59.7339H49.3972C48.2926 59.7339 47.3972 60.6293 47.3972 61.7339ZM49.3972 67.7339V61.7339H54.3972V67.7339H60.3972V72.7339H54.3972V78.7339H49.3972V72.7339H43.3972V67.7339H49.3972Z" fill="#907970"/>
<path fill-rule="evenodd" clip-rule="evenodd" d="M24.1184 47.2735C24.4161 47.1871 24.737 47.2436 24.9872 47.4265L37.3972 56.4953L49.8072 47.4265C50.0334 47.2612 50.3186 47.1984 50.5933 47.2533C54.4577 48.0262 63.1841 51.9893 71.7626 61.7191C74.5658 64.8985 74.9457 69.6478 72.1298 72.98C71.6625 73.5331 71.1605 74.0958 70.624 74.6635C64.3615 81.289 53.3302 88.6445 37.4342 89.2332C19.5533 89.8955 7.60201 80.329 1.70158 72.6768C-0.783481 69.454 -0.479407 65.041 2.17514 62.0375C6.81119 56.7919 14.5824 50.0421 24.1184 47.2735ZM36.3972 58.2417L24.361 49.446C19.9462 52.3996 10.8621 61.0016 6.3459 74.5501C6.31251 74.6503 6.26481 74.7416 6.20583 74.8227C12.3171 81.1243 22.3982 87.4819 36.3972 87.2601V65.7339C36.3972 65.1816 36.8449 64.7339 37.3972 64.7339C37.9495 64.7339 38.3972 65.1816 38.3972 65.7339V87.1859C52.7703 86.3671 62.8514 79.7852 68.7533 73.7244C63.8014 59.5523 54.7832 51.8051 50.4826 49.41L38.3972 58.2417V60.7339C38.3972 61.2862 37.9495 61.7339 37.3972 61.7339C36.8449 61.7339 36.3972 61.2862 36.3972 60.7339V58.2417ZM57.6306 52.3899C61.3337 54.57 65.7996 57.98 70.2624 63.0417C72.4933 65.5721 72.6996 69.2072 70.6022 71.6891C70.4972 71.8135 70.3902 71.9383 70.2814 72.0638C66.9301 63.0055 61.9702 56.5307 57.6306 52.3899ZM4.69963 73.1821C8.13662 63.346 13.8727 56.0774 18.5495 51.6282C12.283 54.7889 7.1173 59.4657 3.67374 63.362C1.61321 65.6934 1.42278 69.04 3.28541 71.4556C3.72213 72.0219 4.19355 72.5992 4.69963 73.1821Z" fill="#907970"/>
</svg>
