<svg width="53" height="89" viewBox="0 0 53 89" fill="none" xmlns="http://www.w3.org/2000/svg">
<path fill-rule="evenodd" clip-rule="evenodd" d="M39.287 40.2305L35.9686 34.2625C36.3241 34.144 36.6488 33.961 36.9298 33.7281C37.6921 33.0964 38.1325 32.098 37.9927 31.0274L34.3785 3.34548C33.9238 -0.136657 28.8836 -0.136638 28.429 3.3455L24.8147 31.0274C24.6749 32.098 25.1154 33.0964 25.8777 33.7282C26.1586 33.961 26.4833 34.144 26.8387 34.2625L21.6689 43.5603H21.42V44.0097C20.7558 45.2627 20.8339 46.6418 21.42 47.7482V80.6085C21.42 80.6855 21.4222 80.7619 21.4265 80.8379C21.5453 82.9403 23.2879 84.6085 25.42 84.6085H35.8139L35.8138 84.6115C35.8138 84.6634 35.8148 84.7151 35.8168 84.7666C35.8214 84.8873 35.8314 85.0067 35.8464 85.1244C36.0982 87.0914 37.7785 88.6116 39.8138 88.6116H47.582C48.4105 88.6116 49.1801 88.3597 49.8185 87.9284C50.4473 87.5035 50.9489 86.9046 51.2539 86.2007C51.465 85.7136 51.5821 85.1762 51.5821 84.6115V59.1106C52.4917 57.8464 52.6686 56.0721 51.6877 54.5739L47.6308 48.377C48.463 47.7528 48.955 46.7091 48.8084 45.5859L46.6728 29.2295C46.2182 25.7474 41.1779 25.7474 40.7233 29.2295L39.287 40.2305ZM34.1045 33.5378C34.3202 32.9832 34.7716 32.5534 35.3361 32.3652C35.7787 32.2176 36.0727 31.7701 36.0096 31.2863L32.3953 3.60441C32.3472 3.23603 32.2029 3.05369 32.0709 2.94793C31.9144 2.82266 31.6794 2.73389 31.4037 2.73389C31.128 2.73389 30.893 2.82266 30.7366 2.94794C30.6045 3.0537 30.4602 3.23605 30.4121 3.60443L26.7979 31.2863C26.7347 31.7701 27.0287 32.2176 27.4713 32.3652C28.0358 32.5534 28.4872 32.9832 28.7028 33.5379C28.9184 34.0925 28.8758 34.7143 28.5867 35.2344L23.4169 44.5322C23.3753 44.6069 23.3294 44.6783 23.2795 44.7461C23.2525 44.8143 23.2216 44.8812 23.1871 44.9464C22.8548 45.5732 22.8895 46.2497 23.1874 46.812C23.2957 47.0165 23.3673 47.2375 23.3999 47.4652H38.9586C38.6446 46.9185 38.4988 46.2668 38.5877 45.5859L38.8518 43.5634L34.2207 35.2345C33.9315 34.7144 33.8889 34.0925 34.1045 33.5378ZM35.8139 82.6083L35.8138 59.3935H23.42V80.6083C23.42 80.8845 23.476 81.1477 23.5772 81.387C23.6531 81.5664 23.7544 81.7325 23.8767 81.8806C24.2436 82.3251 24.7987 82.6083 25.42 82.6083H35.8139ZM35.1005 57.3935C34.9488 56.4672 35.121 55.471 35.7084 54.5739L39.0529 49.4652H23.42V57.3935H35.1005ZM45.9575 49.4725C45.3797 48.5899 45.5868 47.4102 46.4307 46.7771C46.7154 46.5635 46.8737 46.2164 46.8252 45.8449L44.6896 29.4885C44.6415 29.1201 44.4973 28.9377 44.3652 28.832C44.2087 28.7067 43.9737 28.6179 43.698 28.6179C43.4224 28.6179 43.1873 28.7067 43.0309 28.832C42.8988 28.9377 42.7546 29.1201 42.7065 29.4885L40.5709 45.8449C40.5224 46.2164 40.6807 46.5635 40.9654 46.7771C41.8093 47.4102 42.0164 48.5899 41.4386 49.4725L37.3817 55.6694C36.8936 56.4149 36.9674 57.2891 37.4374 57.9424C37.6822 58.2826 37.8139 58.6912 37.8139 59.1104V59.2795H49.582L49.5821 59.1106C49.5821 58.6914 49.7138 58.2827 49.9586 57.9425C50.4287 57.2892 50.5025 56.4149 50.0144 55.6694L45.9575 49.4725ZM49.582 67.1199V61.2795H37.8139V67.1199H49.582ZM49.5414 85.0145C49.568 84.8844 49.582 84.7496 49.582 84.6116V69.1199H37.8139V84.6115C37.8139 85.043 37.9505 85.4426 38.1829 85.7693C38.471 86.1745 38.9063 86.4676 39.4108 86.5709C39.541 86.5975 39.6758 86.6115 39.8138 86.6115H47.582C48.5485 86.6115 49.3549 85.9259 49.5414 85.0145Z" fill="#907970"/>
<path fill-rule="evenodd" clip-rule="evenodd" d="M16.2056 86.2007C16.4167 85.7136 16.5337 85.1762 16.5337 84.6115V59.1106C17.4434 57.8464 17.6202 56.0721 16.6394 54.5739L12.5825 48.377C13.4147 47.7528 13.9067 46.7091 13.76 45.5859L11.6245 29.2295C11.1698 25.7474 6.12959 25.7474 5.67495 29.2295L3.53939 45.5859C3.39274 46.7091 3.88472 47.7528 4.71694 48.377L0.660023 54.5739C-0.320758 56.072 -0.143952 57.8462 0.765562 59.1104L0.765503 84.6115C0.765503 84.6634 0.766495 84.7151 0.768455 84.7666C0.773058 84.8873 0.783014 85.0067 0.798091 85.1244C1.04984 87.0914 2.73013 88.6116 4.76551 88.6116H12.5337C13.3621 88.6116 14.1317 88.3597 14.7702 87.9284C15.399 87.5035 15.9005 86.9046 16.2056 86.2007ZM10.9092 49.4725C10.3313 48.5899 10.5384 47.4102 11.3824 46.7771C11.6671 46.5635 11.8254 46.2164 11.7769 45.8449L9.64129 29.4885C9.59319 29.1201 9.44892 28.9377 9.31685 28.832C9.16041 28.7067 8.92538 28.6179 8.6497 28.6179C8.37403 28.6179 8.139 28.7067 7.98256 28.832C7.85048 28.9377 7.70622 29.1201 7.65812 29.4885L5.52255 45.8449C5.47404 46.2164 5.63232 46.5635 5.91705 46.7771C6.76099 47.4102 6.96809 48.5899 6.39025 49.4725L2.33333 55.6694C1.84526 56.4149 1.9191 57.2891 2.38906 57.9424C2.63386 58.2826 2.76556 58.6912 2.76556 59.1104V59.2795H14.5337L14.5337 59.1106C14.5337 58.6914 14.6655 58.2827 14.9103 57.9425C15.3803 57.2892 15.4542 56.4149 14.9661 55.6694L10.9092 49.4725ZM14.5337 67.1199V61.2795H2.76556V67.1199H14.5337ZM14.493 85.0145C14.5197 84.8844 14.5337 84.7496 14.5337 84.6116V69.1199H2.76556V84.6115C2.76556 85.043 2.9022 85.4426 3.13458 85.7693C3.4227 86.1745 3.858 86.4676 4.36249 86.5709C4.49267 86.5975 4.62746 86.6115 4.76551 86.6115H12.5337C13.5002 86.6115 14.3065 85.9259 14.493 85.0145Z" fill="#907970"/>
</svg>
