<svg width="60" height="62" viewBox="0 0 60 62" fill="none" xmlns="http://www.w3.org/2000/svg">
<path fill-rule="evenodd" clip-rule="evenodd" d="M49.4675 24.0386C49.4572 24.6218 49.4468 25.2122 49.4401 25.8106C49.4328 26.4699 48.8985 27.0044 48.2392 27.0044C47.6436 27.0044 47.143 26.5646 47.0341 25.9791C46.5858 23.5687 45.7283 21.2349 44.1205 18.9125C40.2847 13.3719 36.1223 11.0044 29.9999 11.0044C23.8776 11.0044 19.7151 13.3719 15.8793 18.9125C14.2715 21.2349 13.414 23.5687 12.9657 25.9791C12.8568 26.5646 12.3562 27.0044 11.7606 27.0044C11.1013 27.0044 10.567 26.4699 10.5597 25.8106C10.5531 25.2124 10.5427 24.6221 10.5324 24.0391C10.4285 18.1511 10.3377 13.0042 14.2655 7.91251C18.5397 2.37186 23.1779 0.00439453 29.9999 0.00439453C36.822 0.00439453 41.4601 2.37186 45.7343 7.91251C49.6621 13.0042 49.5713 18.1507 49.4675 24.0386ZM44.1507 9.13411C46.9511 12.7643 47.4599 16.3837 47.496 20.8019C47.0307 19.7884 46.461 18.7796 45.7649 17.7741C43.7326 14.8385 41.5243 12.6135 38.8976 11.1372C36.256 9.65256 33.3324 9.0044 29.9999 9.00439C26.6674 9.00439 23.7439 9.65256 21.1023 11.1372C18.4756 12.6135 16.2672 14.8385 14.2349 17.7741C13.5388 18.7796 12.9691 19.7884 12.5038 20.8019C12.5399 16.3837 13.0487 12.7643 15.8491 9.13411C17.8553 6.53345 19.8648 4.78269 22.078 3.66642C24.2862 2.5526 26.8282 2.00439 29.9999 2.00439C33.1716 2.00439 35.7136 2.5526 37.9219 3.66642C40.135 4.78269 42.1445 6.53345 44.1507 9.13411Z" fill="#907970"/>
<path fill-rule="evenodd" clip-rule="evenodd" d="M2.39543 31.386C2.11486 30.9103 1.50177 30.7521 1.02606 31.0327C0.550359 31.3133 0.392177 31.9264 0.672754 32.4021C0.992319 32.9439 1.98931 35.0417 2.42828 36.7907C3.99596 43.0372 5.58683 46.9479 8.17826 52.2384C9.0575 54.0334 10.2434 54.8843 11.5185 55.7993C11.7682 55.9785 12.0214 56.1602 12.2764 56.3519C13.8635 57.5452 15.0845 58.0989 16.5752 58.775C16.9202 58.9315 17.2798 59.0945 17.6616 59.2736C20.2153 60.471 23.2918 61.6154 24.5072 61.9193C25.3614 62.1328 26.3337 61.9144 26.7926 61.0577C27.2363 60.2294 26.9303 59.2962 26.3377 58.6377C26.0305 58.2964 25.5931 57.9845 25.1709 57.7178C24.7323 57.4407 24.2335 57.1656 23.7521 56.9101C23.4598 56.7549 23.1816 56.6104 22.924 56.4765C22.279 56.1414 21.7626 55.8731 21.4752 55.6719C21.1422 55.4388 20.6508 55.1408 20.1729 54.8511C19.9391 54.7094 19.7083 54.5695 19.5012 54.4402C19.1634 54.2295 18.8729 54.0387 18.6594 53.8778C18.556 53.7998 18.4868 53.7409 18.4453 53.7008L18.3955 53.5913L18.325 53.527L18.3087 53.4977C18.2664 53.4211 18.2211 53.3314 18.1936 53.2744C17.9532 52.7771 17.3553 52.5689 16.8581 52.8092C16.3608 53.0496 16.1525 53.6475 16.3929 54.1447C16.4315 54.2246 16.4933 54.3475 16.5573 54.4635C16.5888 54.5207 16.6267 54.5868 16.6665 54.6492L16.6689 54.6531C16.6802 54.6708 16.7047 54.7094 16.7402 54.7567C16.839 54.9179 16.9574 55.0432 17.0428 55.1267C17.1684 55.2496 17.3126 55.3672 17.4557 55.475C17.7423 55.691 18.0941 55.9196 18.4425 56.137C18.7127 56.3056 18.9775 56.4659 19.2263 56.6166C19.6608 56.8796 20.0468 57.1133 20.3283 57.3104C20.7328 57.5935 21.443 57.9622 22.1434 58.3258C22.3717 58.4443 22.599 58.5623 22.8144 58.6766C23.2832 58.9255 23.7289 59.1725 24.1027 59.4086C24.4485 59.6271 24.6788 59.8032 24.8069 59.9296C23.6367 59.6017 20.8747 58.5712 18.5107 57.4628C18.0869 57.264 17.7025 57.0893 17.3453 56.927C15.8855 56.2635 14.8777 55.8055 13.4783 54.7533C13.1601 54.5141 12.8687 54.303 12.6002 54.1085C11.368 53.216 10.6181 52.6729 9.97436 51.3586C7.42979 46.1638 5.8945 42.3858 4.36812 36.3039C3.875 34.3391 2.79537 32.0641 2.39543 31.386ZM18.4169 53.6712L18.4157 53.6699C18.4156 53.6699 18.4171 53.6718 18.4206 53.6757L18.4169 53.6712Z" fill="#907970"/>
<path d="M6.22998 16.7096C6.77248 16.6061 7.29617 16.962 7.39968 17.5045C7.47361 17.892 7.54293 18.3275 7.61752 18.7961C7.86263 20.336 8.16475 22.2341 8.87536 23.9673C9.25206 24.8861 9.61514 25.548 10.059 26.1127C10.5022 26.6765 11.0571 27.1831 11.8614 27.7551C12.9835 28.553 13.8204 29.3413 14.5079 30.2719C15.1904 31.1955 15.6965 32.2203 16.1968 33.4486C16.8332 35.0113 16.8193 36.3449 16.7598 37.5538C16.7538 37.6768 16.7474 37.798 16.741 37.9176C16.6847 38.98 16.6345 39.9279 16.9009 41.0575C17.085 41.8381 17.3703 42.4215 17.6951 43.0856C17.7438 43.1852 17.7935 43.2866 17.8437 43.3908C18.2275 44.1857 18.6168 45.0853 18.7081 46.3287C18.79 47.4431 18.7408 48.754 18.5614 49.8493C18.4723 50.3938 18.3443 50.9274 18.1625 51.3704C18.0081 51.7468 17.7068 52.3351 17.1061 52.5824C16.7054 52.7474 16.2729 52.7767 15.8578 52.625C15.4704 52.4835 15.1994 52.2212 15.0184 51.9916C14.692 51.5774 14.4811 51.0294 14.3538 50.6987L14.2285 50.3739C13.2752 47.9022 12.8442 46.7846 11.5215 44.7395C10.9988 43.9314 10.4026 43.0995 10.2252 42.9109C9.84668 42.5088 9.86586 41.8759 10.268 41.4974C10.6702 41.1188 11.3031 41.138 11.6816 41.5402C12.0047 41.8835 12.6962 42.8731 13.2009 43.6534C14.6367 45.8734 15.1313 47.1561 16.084 49.6268L16.2035 49.9368C16.2681 50.104 16.327 50.2553 16.3899 50.395C16.4628 50.1658 16.5309 49.8731 16.5877 49.5261C16.7399 48.5963 16.7846 47.4436 16.7135 46.4753C16.6498 45.609 16.3903 44.9805 16.0426 44.2602C15.9988 44.1694 15.953 44.0762 15.9058 43.9803C15.5811 43.3194 15.1935 42.5307 14.9543 41.5166C14.6184 40.0927 14.6857 38.8652 14.7432 37.8154C14.7499 37.6932 14.7565 37.5729 14.7622 37.4555C14.818 36.3228 14.8113 35.3493 14.3445 34.2029C13.8728 33.0449 13.4404 32.1926 12.8994 31.4604C12.3635 30.735 11.692 30.0887 10.7024 29.385C9.79461 28.7395 9.08212 28.1063 8.48664 27.3487C7.89189 26.592 7.4451 25.751 7.02486 24.726C6.21443 22.7494 5.85992 20.506 5.61544 18.9589C5.5496 18.5423 5.49175 18.1761 5.43511 17.8793C5.33161 17.3368 5.68749 16.8131 6.22998 16.7096Z" fill="#907970"/>
<path d="M20.0816 30.3525C18.9366 29.3259 17.2177 29.2081 16.1861 30.1365C15.7755 30.506 15.7423 31.1383 16.1117 31.5488C16.4812 31.9593 17.1135 31.9926 17.524 31.6231C17.5796 31.5731 17.7316 31.4947 17.982 31.5084C18.2193 31.5214 18.4972 31.6181 18.7465 31.8416C18.7726 31.865 18.7989 31.888 18.8254 31.9107L18.5771 32.2905C18.2748 32.7527 18.4045 33.3724 18.8667 33.6747C19.329 33.977 19.9487 33.8473 20.251 33.385L20.6108 32.8348C21.3038 33.0276 22.049 33.0966 22.8162 33.112C23.5624 33.1269 24.4277 32.9197 25.1404 32.6991C25.875 32.4718 26.5543 32.1958 26.9677 32.005C27.4691 31.7735 27.688 31.1794 27.4565 30.6779C27.225 30.1765 26.6309 29.9576 26.1295 30.1891C25.7888 30.3463 25.192 30.5896 24.549 30.7886C23.8841 30.9944 23.2703 31.1207 22.8564 31.1124C21.8715 31.0926 21.1678 30.9734 20.6385 30.721C20.431 30.6221 20.2473 30.5011 20.0816 30.3525Z" fill="#907970"/>
<path d="M18.0198 24.0189C22.7772 22.5684 26.0445 24.4617 27.1808 25.8222C27.5348 26.2461 27.4782 26.8767 27.0543 27.2308C26.6304 27.5848 25.9998 27.5282 25.6457 27.1043C25.0255 26.3616 22.5929 24.7155 18.6031 25.932C18.0748 26.0931 17.516 25.7954 17.3549 25.2671C17.1938 24.7388 17.4915 24.18 18.0198 24.0189Z" fill="#907970"/>
<path fill-rule="evenodd" clip-rule="evenodd" d="M57.6046 31.386C57.8852 30.9103 58.4983 30.7521 58.974 31.0327C59.4497 31.3133 59.6079 31.9264 59.3273 32.4021C59.0078 32.9439 58.0108 35.0417 57.5718 36.7907C56.0041 43.0372 54.4132 46.9479 51.8218 52.2384C50.9426 54.0334 49.7567 54.8843 48.4816 55.7993C48.2318 55.9785 47.9787 56.1602 47.7237 56.3519C46.1367 57.5451 44.9157 58.0989 43.425 58.775C43.0799 58.9314 42.7203 59.0945 42.3385 59.2736C39.7848 60.471 36.7083 61.6154 35.4929 61.9193C34.6387 62.1328 33.6664 61.9144 33.2075 61.0577C32.7637 60.2294 33.0698 59.2962 33.6624 58.6377C33.9696 58.2964 34.407 57.9845 34.8292 57.7178C35.2678 57.4407 35.7666 57.1656 36.2479 56.9101C36.5402 56.7549 36.8183 56.6104 37.0758 56.4766C37.7207 56.1416 38.2375 55.873 38.5249 55.6719C38.8578 55.4389 39.3492 55.1409 39.8269 54.8512C40.0607 54.7095 40.2917 54.5695 40.4988 54.4402C40.8367 54.2295 41.1272 54.0387 41.3406 53.8778C41.4441 53.7998 41.5132 53.7409 41.5548 53.7008L41.6046 53.5913L41.6751 53.527L41.6914 53.4977C41.7337 53.4211 41.7789 53.3314 41.8065 53.2744C42.0468 52.7771 42.6448 52.5689 43.142 52.8092C43.6393 53.0496 43.8475 53.6475 43.6072 54.1447C43.5686 54.2246 43.5067 54.3475 43.4428 54.4635C43.4113 54.5207 43.3734 54.5868 43.3336 54.6492L43.3311 54.6531C43.3199 54.6708 43.2954 54.7094 43.2599 54.7567C43.1611 54.9179 43.0426 55.0432 42.9573 55.1267C42.8317 55.2496 42.6874 55.3672 42.5444 55.475C42.2578 55.691 41.906 55.9196 41.5575 56.137C41.2873 56.3056 41.0226 56.4659 40.7738 56.6166C40.3392 56.8797 39.9533 57.1133 39.6718 57.3104C39.2673 57.5935 38.5571 57.9622 37.8566 58.3258C37.6283 58.4443 37.4011 58.5623 37.1857 58.6766C36.7168 58.9255 36.2712 59.1725 35.8974 59.4086C35.5515 59.6271 35.3213 59.8032 35.1932 59.9296C36.3633 59.6017 39.1254 58.5712 41.4894 57.4628C41.9133 57.264 42.2978 57.0892 42.6552 56.9268C44.1149 56.2634 45.1224 55.8055 46.5218 54.7533C46.84 54.5141 47.1314 54.303 47.3999 54.1085C48.6321 53.216 49.3819 52.6729 50.0257 51.3586C52.5703 46.1638 54.1056 42.3858 55.632 36.3039C56.1251 34.3391 57.2047 32.0641 57.6046 31.386Z" fill="#907970"/>
<path d="M53.7701 16.7096C53.2276 16.6061 52.7039 16.962 52.6004 17.5045C52.5265 17.892 52.4571 18.3275 52.3826 18.7961C52.1374 20.336 51.8353 22.2342 51.1247 23.9673C50.748 24.8861 50.3849 25.548 49.941 26.1127C49.4979 26.6765 48.943 27.1831 48.1387 27.7551C47.0166 28.553 46.1797 29.3413 45.4921 30.2719C44.8097 31.1955 44.3036 32.2203 43.8033 33.4486C43.1669 35.0113 43.1808 36.3449 43.2402 37.5538C43.2463 37.6771 43.2527 37.7984 43.2591 37.9183C43.3154 38.9807 43.3656 39.9279 43.0992 41.0575C42.9151 41.8381 42.6297 42.4215 42.3049 43.0856C42.2562 43.1852 42.2066 43.2866 42.1563 43.3908C41.7726 44.1857 41.3833 45.0853 41.292 46.3287C41.2101 47.4431 41.2593 48.754 41.4386 49.8493C41.5278 50.3938 41.6558 50.9274 41.8376 51.3704C41.992 51.7468 42.2933 52.3351 42.894 52.5824C43.2947 52.7474 43.7272 52.7767 44.1423 52.625C44.5297 52.4835 44.8007 52.2212 44.9817 51.9916C45.3081 51.5774 45.519 51.0294 45.6463 50.6987L45.7716 50.3739C46.7248 47.9023 47.1559 46.7846 48.4786 44.7395C49.0013 43.9314 49.5974 43.0995 49.7749 42.9109C50.1534 42.5088 50.1342 41.8759 49.732 41.4974C49.3299 41.1188 48.697 41.138 48.3185 41.5402C47.9954 41.8835 47.3039 42.8731 46.7992 43.6534C45.3634 45.8734 44.8688 47.1561 43.9161 49.6269L43.7965 49.9368C43.732 50.104 43.6731 50.2553 43.6101 50.395C43.5373 50.1658 43.4692 49.8731 43.4124 49.5261C43.2601 48.5963 43.2155 47.4436 43.2866 46.4753C43.3502 45.609 43.6098 44.9805 43.9575 44.2602C44.0013 44.1694 44.0471 44.0762 44.0942 43.9803C44.419 43.3194 44.8066 42.5306 45.0458 41.5166C45.3816 40.0927 45.3144 38.8652 45.2569 37.8154C45.2502 37.6931 45.2436 37.5731 45.2378 37.4555C45.1821 36.3228 45.1887 35.3493 45.6556 34.2029C46.1273 33.0449 46.5596 32.1926 47.1007 31.4604C47.6366 30.735 48.3081 30.0887 49.2977 29.385C50.2055 28.7395 50.9179 28.1063 51.5134 27.3487C52.1082 26.592 52.555 25.751 52.9752 24.726C53.7856 22.7494 54.1402 20.506 54.3846 18.9589C54.4505 18.5423 54.5083 18.1761 54.565 17.8793C54.6685 17.3368 54.3126 16.8131 53.7701 16.7096Z" fill="#907970"/>
<path d="M39.9185 30.3525C41.0634 29.3259 42.7824 29.2081 43.814 30.1365C44.2245 30.506 44.2578 31.1383 43.8884 31.5488C43.5189 31.9593 42.8866 31.9926 42.4761 31.6231C42.4205 31.5731 42.2685 31.4947 42.0181 31.5084C41.7808 31.5214 41.5029 31.6181 41.2536 31.8416C41.2275 31.865 41.2012 31.888 41.1746 31.9107L41.423 32.2905C41.7252 32.7527 41.5956 33.3724 41.1333 33.6747C40.6711 33.977 40.0514 33.8473 39.7491 33.385L39.3893 32.8348C38.6963 33.0276 37.951 33.0966 37.1838 33.112C36.4377 33.1269 35.5724 32.9197 34.8597 32.6991C34.125 32.4718 33.4458 32.1958 33.0324 32.005C32.5309 31.7735 32.3121 31.1794 32.5436 30.6779C32.775 30.1765 33.3692 29.9576 33.8706 30.1891C34.2113 30.3463 34.8081 30.5896 35.451 30.7886C36.116 30.9944 36.7297 31.1207 37.1437 31.1124C38.1286 31.0926 38.8323 30.9734 39.3616 30.721C39.5691 30.6221 39.7527 30.5011 39.9185 30.3525Z" fill="#907970"/>
<path d="M41.9803 24.0189C37.2229 22.5684 33.9556 24.4617 32.8193 25.8222C32.4653 26.2461 32.5219 26.8767 32.9458 27.2308C33.3697 27.5848 34.0003 27.5282 34.3544 27.1043C34.9746 26.3616 37.4072 24.7155 41.397 25.932C41.9253 26.0931 42.4841 25.7954 42.6452 25.2671C42.8062 24.7388 42.5086 24.18 41.9803 24.0189Z" fill="#907970"/>
<path d="M26.8065 38.3088C27.1931 37.9146 27.8261 37.9084 28.2204 38.2949C28.2205 38.295 28.2206 38.2951 27.5204 39.009L26.8201 39.7229C26.4259 39.3362 26.4198 38.7031 26.8065 38.3088Z" fill="#907970"/>
<path d="M27.5204 39.009L28.2204 38.2949L28.2269 38.3012L28.2368 38.3105L28.2619 38.334C28.2943 38.3641 28.3438 38.4091 28.4073 38.4641C28.5355 38.5749 28.7148 38.7214 28.921 38.8658C29.3887 39.1933 29.7854 39.3607 30.0019 39.3607C30.2184 39.3607 30.6151 39.1933 31.0828 38.8658C31.2889 38.7214 31.4683 38.5749 31.5965 38.4641C31.66 38.4091 31.7095 38.3641 31.7419 38.334C31.758 38.319 31.7698 38.3079 31.7769 38.3012L31.7832 38.2951C32.1774 37.9087 32.8106 37.9146 33.1973 38.3088C33.584 38.7031 33.5779 39.3362 33.1836 39.7229L32.4834 39.009C33.1836 39.7229 33.1838 39.7228 33.1836 39.7229L33.1823 39.7243L33.1804 39.7261L33.1751 39.7313L33.1584 39.7473C33.1447 39.7604 33.1259 39.7782 33.1022 39.8002C33.0549 39.8441 32.9881 39.9046 32.9052 39.9764C32.7405 40.1189 32.5064 40.3104 32.2302 40.5039C31.7329 40.8522 30.8889 41.3607 30.0019 41.3607C29.1149 41.3607 28.2708 40.8522 27.7736 40.5039C27.4974 40.3104 27.2633 40.1189 27.0986 39.9764C27.0156 39.9046 26.9489 39.8441 26.9016 39.8002C26.8779 39.7782 26.859 39.7604 26.8453 39.7473L26.8287 39.7313L26.8234 39.7261L26.8215 39.7243L26.8201 39.7229C26.82 39.7228 26.8201 39.7229 27.5204 39.009Z" fill="#907970"/>
<path d="M21.0094 49.8583C20.6591 49.4315 20.0292 49.3693 19.6022 49.7194C19.1752 50.0696 19.1129 50.6997 19.4631 51.1268L20.2363 50.4927C19.4631 51.1268 19.4629 51.1266 19.4631 51.1268L19.4651 51.1292L19.469 51.134L19.4826 51.1504C19.4941 51.1642 19.5106 51.184 19.5319 51.2092C19.5746 51.2597 19.6364 51.3322 19.716 51.4236C19.8751 51.6062 20.1056 51.8647 20.396 52.1739C20.9755 52.7908 21.7995 53.6159 22.7748 54.444C23.7471 55.2695 24.89 56.1151 26.1079 56.7583C27.3184 57.3976 28.6662 57.8706 30.031 57.8706C31.3958 57.8706 32.7436 57.3976 33.9541 56.7583C35.172 56.1151 36.3149 55.2695 37.2872 54.444C38.2626 53.6159 39.0865 52.7908 39.666 52.1739C39.9564 51.8647 40.1869 51.6062 40.346 51.4236C40.4256 51.3322 40.4875 51.2597 40.5301 51.2092C40.5514 51.184 40.5679 51.1642 40.5794 51.1504L40.593 51.134L40.5969 51.1292L40.5982 51.1277C40.5983 51.1275 40.5989 51.1268 39.8257 50.4927L40.5989 51.1268C40.9491 50.6997 40.8868 50.0696 40.4598 49.7194C40.0328 49.3693 39.4029 49.4315 39.0526 49.8583L39.0508 49.8606L39.0417 49.8716L39.0016 49.9194C38.9654 49.9623 38.9104 50.0268 38.838 50.1099C38.6933 50.276 38.4796 50.5158 38.2083 50.8046C37.6645 51.3835 36.8956 52.1529 35.9928 52.9193C35.0871 53.6883 34.0666 54.4371 33.0201 54.9898C31.9661 55.5464 30.9485 55.8706 30.031 55.8706C29.1135 55.8706 28.0959 55.5464 27.0419 54.9898C25.9954 54.4371 24.9749 53.6883 24.0692 52.9193C23.1664 52.1529 22.3975 51.3835 21.8537 50.8046C21.5825 50.5158 21.3687 50.276 21.224 50.1099C21.1517 50.0268 21.0966 49.9623 21.0604 49.9194L21.0204 49.8716L21.0112 49.8606L21.0094 49.8583Z" fill="#907970"/>
<path d="M27.5374 48.1663C27.7233 48.2711 27.9839 48.4107 28.282 48.5493C28.9184 48.8454 29.5749 49.0651 30.0292 49.0651C30.4514 49.0651 31.048 48.8755 31.6409 48.6111L33.3354 48.8469C33.8692 49.6926 33.869 49.6927 33.8689 49.6928L33.8656 49.6948L33.8592 49.6988L33.8382 49.7119C33.8206 49.7227 33.7959 49.7378 33.7647 49.7566C33.7023 49.794 33.6136 49.8462 33.5037 49.9082C33.2846 50.0318 32.9767 50.1968 32.6202 50.3627C31.9475 50.6757 30.9509 51.0651 30.0292 51.0651C29.1076 51.0651 28.111 50.6757 27.4383 50.3627C27.0818 50.1968 26.7739 50.0318 26.5548 49.9082C26.4448 49.8462 26.3562 49.794 26.2938 49.7566L26.257 49.7343L26.2203 49.7119L26.1992 49.6988L26.1929 49.6948L26.1896 49.6928C26.1894 49.6927 26.1893 49.6926 26.723 48.8469L26.1896 49.6928C25.7225 49.398 25.5826 48.7803 25.8774 48.3132C26.172 47.8464 26.789 47.7066 27.256 48.0008L27.258 48.002L27.2698 48.0094C27.2811 48.0163 27.2992 48.0274 27.3235 48.042C27.372 48.0711 27.4449 48.1141 27.5374 48.1663Z" fill="#907970"/>
<path fill-rule="evenodd" clip-rule="evenodd" d="M32.802 48.0011L32.8005 48.002L32.7887 48.0094C32.7834 48.0126 32.7768 48.0167 32.7687 48.0216C32.7593 48.0273 32.748 48.0341 32.735 48.042C32.6864 48.0711 32.6135 48.1141 32.521 48.1663C32.3352 48.2711 32.0746 48.4107 31.7765 48.5493C31.7314 48.5703 31.6862 48.591 31.6409 48.6111L27.256 48.0008L28.1592 48.001C27.8035 47.8949 27.4632 47.7771 27.1671 47.6682C26.7328 47.5086 26.3452 47.3496 26.0665 47.2307C25.9267 47.1711 25.8135 47.1212 25.7343 47.0858C25.6948 47.0681 25.6637 47.054 25.642 47.0441L25.6167 47.0325L25.6095 47.0292L25.6074 47.0282L25.6064 47.0278C25.6063 47.0277 25.6062 47.0277 26.027 46.1205L25.6064 47.0278C25.2965 46.884 25.0812 46.592 25.0358 46.2534C24.9905 45.9148 25.121 45.5765 25.3822 45.3562L27.8702 43.2572C28.1332 43.0353 28.4917 42.9642 28.8194 43.0689L29.9974 43.4453L31.2089 43.0669C31.5234 42.9687 31.8661 43.0317 32.1251 43.2354L34.7947 45.3344C35.0709 45.5516 35.2128 45.8977 35.1687 46.2463C35.1245 46.5948 34.9006 46.8946 34.579 47.036L34.1766 46.1205C34.579 47.036 34.5791 47.0359 34.579 47.036L34.5757 47.0375L34.5683 47.0407L34.542 47.0521C34.5195 47.0618 34.487 47.0758 34.4456 47.0934C34.3628 47.1285 34.2443 47.1781 34.0982 47.2374C33.8067 47.3558 33.4021 47.514 32.9511 47.6728C32.6459 47.7803 32.2971 47.8964 31.9345 48.0011L32.802 48.0011ZM30.0293 46.3387C29.5564 46.3387 28.7478 46.1139 27.9348 45.8194L28.7373 45.1423L29.6896 45.4465C29.8854 45.5091 30.0957 45.5098 30.292 45.4485L31.3027 45.1329L32.1808 45.8234C31.337 46.1151 30.5033 46.3387 30.0293 46.3387Z" fill="#907970"/>
<path d="M32.802 48.0011C33.269 47.7065 33.8864 47.8462 34.1811 48.3132C34.4759 48.7803 34.3359 49.398 33.8689 49.6928L33.3354 48.8469C32.8017 48.0013 32.8019 48.0012 32.802 48.0011Z" fill="#907970"/>
</svg>
