<svg width="84" height="89" viewBox="0 0 84 89" fill="none" xmlns="http://www.w3.org/2000/svg">
<path fill-rule="evenodd" clip-rule="evenodd" d="M11.631 33.5914H11C10.523 33.5914 10.053 33.561 9.59198 33.5021C4.1818 32.8109 0 28.1895 0 22.5914V11.7339C0 5.65876 4.92487 0.733887 11 0.733887H80.2499C82.8693 0.733887 84.2307 3.85556 82.4484 5.77514L60.1821 29.7564C57.9115 32.2018 54.7252 33.5914 51.3882 33.5914H43.2003L41.5322 40.3276C43.7204 40.3519 45.4869 42.1334 45.4869 44.3274V60.9372C45.4869 63.1463 43.696 64.9372 41.4869 64.9372H36.3314C36.0325 64.9372 35.7414 64.9044 35.4613 64.8423L34.3849 69.1885C35.0587 69.2752 35.7091 69.4364 36.3277 69.6635C39.7697 70.9275 42.2253 74.2342 42.2253 78.1145V79.7339C42.2253 84.7045 38.1959 88.7339 33.2253 88.7339H9C4.02944 88.7339 0 84.7045 0 79.7339V77.0881C0 75.5589 0.350733 74.05 1.02523 72.6775L2.76841 69.1304L11.631 33.5914ZM41.1399 33.5914H13.631C13.631 33.7529 13.6114 33.9154 13.5715 34.0753L4.70898 69.6144C4.67468 69.7519 4.62587 69.8854 4.56336 70.0126L2.82018 73.5596C2.33271 74.5515 2.05662 75.6325 2.00783 76.7341H27.9373C28.4895 76.7341 28.9373 77.1818 28.9373 77.7341C28.9373 78.2864 28.4895 78.7341 27.9373 78.7341H2V79.7339C2 83.5999 5.134 86.7339 9 86.7339H33.2253C37.0913 86.7339 40.2253 83.5999 40.2253 79.7339V78.1145C40.2253 74.5557 37.5677 71.6144 34.1298 71.1722C33.5641 71.0994 33.0564 70.7886 32.7343 70.3179C32.4123 69.8472 32.3065 69.2614 32.4436 68.7077L32.5888 68.1216H17.3525C15.3596 68.1216 13.744 66.506 13.744 64.5131C13.744 62.5202 15.3596 60.9046 17.3525 60.9046H34.376L35.3849 56.8306H20.7549C18.7619 56.8306 17.1464 55.2151 17.1464 53.2222C17.1464 51.2292 18.7619 49.6137 20.7548 49.6137H37.1721L38.181 45.5397H24.1572C22.1643 45.5397 20.5487 43.9241 20.5487 41.9312C20.5487 39.9383 22.1643 38.3228 24.1572 38.3228H39.9682L41.1399 33.5914ZM17.3525 62.9046H33.8807L33.084 66.1216H17.3525C16.4642 66.1216 15.744 65.4014 15.744 64.5131C15.744 63.6247 16.4642 62.9046 17.3525 62.9046ZM36.6768 51.6137L35.8802 54.8306H20.7549C19.8665 54.8306 19.1464 54.1105 19.1464 53.2222C19.1464 52.3338 19.8665 51.6137 20.7548 51.6137H36.6768ZM39.4729 40.3228L38.6763 43.5397H24.1572C23.2689 43.5397 22.5487 42.8196 22.5487 41.9312C22.5487 41.0429 23.2689 40.3228 24.1572 40.3228H39.4729ZM71.2721 2.73389L44.4783 31.5914H51.3882C54.169 31.5914 56.8243 30.4334 58.7164 28.3956L80.9827 4.41431C81.5768 3.77445 81.123 2.73389 80.2499 2.73389H71.2721ZM68.543 2.73389H11C6.36737 2.73389 2.55224 6.23406 2.0549 10.7341H33.9373C34.4895 10.7341 34.9373 11.1818 34.9373 11.7341C34.9373 12.2864 34.4895 12.7341 33.9373 12.7341H2V15.7341H17.9373C18.4895 15.7341 18.9373 16.1818 18.9373 16.7341C18.9373 17.2864 18.4895 17.7341 17.9373 17.7341H2V22.5914C2 27.5619 6.02944 31.5914 11 31.5914H41.7491L68.543 2.73389ZM35.9999 62.9101C36.1075 62.928 36.2183 62.9372 36.3314 62.9372H41.4869C42.5914 62.9372 43.4869 62.0418 43.4869 60.9372V44.3274C43.4869 43.2228 42.5914 42.3274 41.4869 42.3274H41.097L35.9999 62.9101Z" fill="#907970"/>
</svg>
