<svg width="48" height="62" viewBox="0 0 48 62" fill="none" xmlns="http://www.w3.org/2000/svg">
<path d="M34.3096 2H7.30957C4.54815 2 2.30957 4.23858 2.30957 7V29C2.30957 31.7614 4.54815 34 7.30957 34H24.3096C24.8619 34 25.3096 34.4477 25.3096 35C25.3096 35.5523 24.8619 36 24.3096 36H21.3096V43C21.3096 46.5265 18.7019 49.4439 15.3096 49.9291V50H7.30957C4.54815 50 2.30957 52.2386 2.30957 55C2.30957 57.7614 4.54815 60 7.30957 60H24.3096C30.2556 60 35.1915 55.6754 36.1437 50H36.3096H38.1678C37.1973 56.7846 31.3625 62 24.3096 62H7.30957C3.44358 62 0.30957 58.866 0.30957 55C0.30957 51.134 3.44358 48 7.30957 48H14.3096C17.071 48 19.3096 45.7614 19.3096 43V36H7.30957C3.44358 36 0.30957 32.866 0.30957 29V7C0.30957 3.13401 3.44358 0 7.30957 0H34.3096C36.9749 0 39.2923 1.48961 40.4746 3.68173C40.813 4.3091 40.3036 5 39.5908 5C39.1673 5 38.7926 4.74328 38.5706 4.3826C37.6906 2.95308 36.1114 2 34.3096 2Z" fill="#907970"/>
<path fill-rule="evenodd" clip-rule="evenodd" d="M47.1867 22.9899C47.2674 22.6627 47.3096 22.3295 47.3096 21.9925V16C47.3096 14.9856 46.9319 14.0593 46.3096 13.3542V11C46.3096 8.79086 44.5187 7 42.3096 7H30.3096C28.1004 7 26.3096 8.79086 26.3096 11V13.3542C25.6872 14.0593 25.3096 14.9856 25.3096 16V21.9981C25.3096 22.3314 25.351 22.6618 25.4295 22.9857C25.7422 24.2759 26.5743 27.8696 26.8096 30.5C27.0096 32.7369 26.7917 34.6228 26.5841 36.419C26.4445 37.6267 26.3096 38.7939 26.3096 40C26.3096 45.5228 30.7867 50 36.3096 50C41.8324 50 46.3096 45.5228 46.3096 40C46.3096 38.8462 46.1681 37.6809 46.02 36.4605C45.783 34.5078 45.5288 32.4139 45.8096 30C46.0946 27.5495 46.8819 24.2264 47.1867 22.9899ZM45.2449 22.5111C44.9415 23.7415 44.1243 27.1776 43.823 29.769C43.5147 32.4196 43.793 34.7115 44.0272 36.6404L44.0346 36.7015C44.1855 37.9451 44.3096 38.9883 44.3096 40C44.3096 44.4183 40.7278 48 36.3096 48C31.8913 48 28.3096 44.4183 28.3096 40C28.3096 38.9278 28.4292 37.8743 28.5708 36.6486L28.5767 36.5983C28.7823 34.8198 29.02 32.7634 28.8016 30.3218C28.5514 27.5242 27.6838 23.796 27.3732 22.5146C27.3302 22.3372 27.3096 22.1649 27.3096 21.9981V16C27.3096 14.8954 28.205 14 29.3096 14H43.3096C44.4141 14 45.3096 14.8954 45.3096 16V21.9925C45.3096 22.1615 45.2886 22.3341 45.2449 22.5111ZM42.3096 9H30.3096C29.205 9 28.3096 9.89543 28.3096 11V12H44.3096V11C44.3096 9.89543 43.4141 9 42.3096 9Z" fill="#907970"/>
<path d="M23.3096 9C23.8619 9 24.3096 8.55229 24.3096 8C24.3096 7.44772 23.8619 7 23.3096 7H11.3096C9.10043 7 7.30957 8.79086 7.30957 11V18C7.30957 20.2091 9.10043 22 11.3096 22H23.3096C23.8619 22 24.3096 21.5523 24.3096 21C24.3096 20.4477 23.8619 20 23.3096 20H11.3096C10.205 20 9.30957 19.1046 9.30957 18V11C9.30957 9.89543 10.205 9 11.3096 9H23.3096Z" fill="#907970"/>
<path d="M9.30957 28C9.30957 28.5523 8.86186 29 8.30957 29C7.75729 29 7.30957 28.5523 7.30957 28C7.30957 27.4477 7.75729 27 8.30957 27C8.86186 27 9.30957 27.4477 9.30957 28Z" fill="#907970"/>
<path d="M12.3096 27C11.7573 27 11.3096 27.4477 11.3096 28C11.3096 28.5523 11.7573 29 12.3096 29H23.3096C23.8619 29 24.3096 28.5523 24.3096 28C24.3096 27.4477 23.8619 27 23.3096 27H12.3096Z" fill="#907970"/>
</svg>
