<svg width="24" height="24" viewBox="0 0 24 24" fill="none" xmlns="http://www.w3.org/2000/svg">
<path fill-rule="evenodd" clip-rule="evenodd" d="M12 6C8.68629 6 6 8.68629 6 12C6 15.3137 8.68629 18 12 18C15.3137 18 18 15.3137 18 12C18 8.68629 15.3137 6 12 6ZM7 12C7 14.7614 9.23858 17 12 17C14.7614 17 17 14.7614 17 12C17 9.23858 14.7614 7 12 7C9.23858 7 7 9.23858 7 12Z" fill="white"/>
<path fill-rule="evenodd" clip-rule="evenodd" d="M17.0107 5.18628C17.0107 4.11528 17.879 3.24707 18.95 3.24707C20.0209 3.24707 20.8892 4.11528 20.8892 5.18628C20.8892 6.25727 20.0209 7.12549 18.95 7.12549C17.879 7.12549 17.0107 6.25727 17.0107 5.18628ZM18.95 6.12549C18.4312 6.12549 18.0107 5.70499 18.0107 5.18628C18.0107 4.66757 18.4312 4.24707 18.95 4.24707C19.4687 4.24707 19.8892 4.66757 19.8892 5.18628C19.8892 5.70499 19.4687 6.12549 18.95 6.12549Z" fill="white"/>
<path fill-rule="evenodd" clip-rule="evenodd" d="M4 0C1.79086 0 0 1.79086 0 4V20C0 22.2091 1.79086 24 4 24H20C22.2091 24 24 22.2091 24 20V4C24 1.79086 22.2091 0 20 0H4ZM20 1H4C2.34315 1 1 2.34315 1 4V20C1 21.6569 2.34315 23 4 23H20C21.6569 23 23 21.6569 23 20V4C23 2.34315 21.6569 1 20 1Z" fill="white"/>
</svg>
