<svg width="20" height="25" viewBox="0 0 20 25" fill="none" xmlns="http://www.w3.org/2000/svg">
<path fill-rule="evenodd" clip-rule="evenodd" d="M14 10C14 12.2091 12.2091 14 10 14C7.79086 14 6 12.2091 6 10C6 7.79086 7.79086 6 10 6C12.2091 6 14 7.79086 14 10ZM13 10C13 11.6569 11.6569 13 10 13C8.34315 13 7 11.6569 7 10C7 8.34315 8.34315 7 10 7C11.6569 7 13 8.34315 13 10Z" fill="white"/>
<path fill-rule="evenodd" clip-rule="evenodd" d="M20 10C20 15.5228 10 25 10 25C10 25 0 15.5228 0 10C0 4.47715 4.47715 0 10 0C15.5228 0 20 4.47715 20 10ZM19 10C19 11.1177 18.4796 12.5606 17.5661 14.1831C16.6677 15.7788 15.4568 17.4316 14.2256 18.9383C12.9976 20.4413 11.7668 21.7778 10.8417 22.7397C10.5189 23.0754 10.2339 23.3648 10 23.599C9.76612 23.3648 9.48112 23.0754 9.15825 22.7397C8.23315 21.7778 7.00242 20.4413 5.77437 18.9383C4.54324 17.4316 3.33227 15.7788 2.43388 14.1831C1.5204 12.5606 1 11.1177 1 10C1 5.02944 5.02944 1 10 1C14.9706 1 19 5.02944 19 10Z" fill="white"/>
</svg>
