<svg width="24" height="24" viewBox="0 0 24 24" fill="none" xmlns="http://www.w3.org/2000/svg">
<path fill-rule="evenodd" clip-rule="evenodd" d="M12.0302 12C14.7916 12 17.0302 9.76142 17.0302 7C17.0302 4.23858 14.7916 2 12.0302 2C9.26875 2 7.03017 4.23858 7.03017 7C7.03017 9.76142 9.26875 12 12.0302 12ZM12.0302 11C14.2393 11 16.0302 9.20914 16.0302 7C16.0302 4.79086 14.2393 3 12.0302 3C9.82103 3 8.03017 4.79086 8.03017 7C8.03017 9.20914 9.82103 11 12.0302 11Z" fill="white"/>
<path d="M18.5956 12.0216C18.3824 11.8463 18.0685 11.8781 17.8802 12.0799C16.4199 13.6446 14.3394 14.6229 12.0303 14.6229C9.67867 14.6229 7.56403 13.6082 6.1003 11.9928C5.91496 11.7882 5.60164 11.7518 5.38587 11.9239C5.17001 12.0962 5.1336 12.4118 5.31754 12.6178C5.42913 12.7427 5.54408 12.8644 5.66223 12.9827C6.36955 13.691 7.19178 14.2779 8.09625 14.7175C9.14413 15.2268 10.2794 15.527 11.4387 15.6034L7.54424 21.2151C7.3868 21.442 7.44308 21.7535 7.66995 21.9109C7.89681 22.0684 8.20835 22.0121 8.36579 21.7852L12.2515 16.186L16.2509 21.7905C16.4113 22.0153 16.7236 22.0675 16.9483 21.9071C17.1731 21.7467 17.2253 21.4344 17.0649 21.2097L13.0378 15.5663C14.0077 15.457 14.9558 15.1904 15.8442 14.7748C16.7551 14.3487 17.5859 13.7739 18.3036 13.0762C18.4587 12.9255 18.5526 12.8311 18.6898 12.68C18.846 12.5082 18.8356 12.2436 18.6709 12.0799L18.5956 12.0216Z" fill="white"/>
<path fill-rule="evenodd" clip-rule="evenodd" d="M0 4C0 1.79086 1.79086 0 4 0H20C22.2091 0 24 1.79086 24 4V20C24 22.2091 22.2091 24 20 24H4C1.79086 24 0 22.2091 0 20V4ZM4 1H20C21.6569 1 23 2.34315 23 4V20C23 21.6569 21.6569 23 20 23H4C2.34315 23 1 21.6569 1 20V4C1 2.34315 2.34315 1 4 1Z" fill="white"/>
</svg>
