<svg width="30" height="30" viewBox="0 0 30 30" fill="none" xmlns="http://www.w3.org/2000/svg">
<g opacity="0.7">
<path d="M21.8751 12.5C21.5301 12.5 21.2501 12.22 21.2501 11.875V8.75001H18.1251C17.7801 8.75001 17.5001 8.47001 17.5001 8.12501C17.5001 7.78001 17.7801 7.50001 18.1251 7.50001H21.2501V4.375C21.2501 4.03 21.5301 3.75 21.8751 3.75C22.2201 3.75 22.5001 4.03 22.5001 4.375V7.50001H25.6251C25.9701 7.50001 26.2501 7.78001 26.2501 8.12501C26.2501 8.47001 25.9701 8.75001 25.6251 8.75001H22.5001V11.875C22.5001 12.22 22.2201 12.5 21.8751 12.5Z" fill="white"/>
<path fill-rule="evenodd" clip-rule="evenodd" d="M13.7502 8.125C13.7502 12.605 17.3952 16.25 21.8752 16.25C26.3552 16.25 30.0002 12.605 30.0002 8.125C30.0002 3.645 26.3552 0 21.8752 0C17.3952 0 13.7502 3.645 13.7502 8.125ZM15.0002 8.125C15.0002 4.33375 18.0839 1.25 21.8752 1.25C25.6664 1.25 28.7502 4.33375 28.7502 8.125C28.7502 11.9163 25.6664 15 21.8752 15C18.0839 15 15.0002 11.9163 15.0002 8.125Z" fill="white"/>
<path d="M0 26.875C0 28.5975 1.4025 30 3.125 30H21.875C23.5975 30 25 28.5975 25 26.875V19.375C25 19.03 24.72 18.75 24.375 18.75C24.03 18.75 23.75 19.03 23.75 19.375V26.875C23.75 27.9088 22.9088 28.75 21.875 28.75H3.125C2.09125 28.75 1.25 27.9088 1.25 26.875V3.12501C1.25 2.09126 2.09125 1.25001 3.125 1.25001H11.875C12.22 1.25001 12.5 0.970008 12.5 0.625008C12.5 0.280008 12.22 7.62939e-06 11.875 7.62939e-06H3.125C1.4025 7.62939e-06 0 1.40251 0 3.12501V26.875Z" fill="white"/>
<path fill-rule="evenodd" clip-rule="evenodd" d="M3.74999 25.625C3.74999 25.97 4.02999 26.25 4.37499 26.25C4.71999 26.25 4.99999 25.97 4.99999 25.625V23.75H6.24999C7.62874 23.75 8.74999 22.6288 8.74999 21.25C8.74999 19.8713 7.62874 18.75 6.24999 18.75H4.37499C4.02999 18.75 3.74999 19.03 3.74999 19.375V25.625ZM6.24999 22.5H4.99999V20H6.24999C6.93874 20 7.49999 20.5613 7.49999 21.25C7.49999 21.9388 6.93874 22.5 6.24999 22.5Z" fill="white"/>
<path fill-rule="evenodd" clip-rule="evenodd" d="M13.1251 26.25H10.6251C10.2801 26.25 10.0001 25.97 10.0001 25.625V19.375C10.0001 19.03 10.2801 18.75 10.6251 18.75H13.1251C14.1589 18.75 15.0001 19.5913 15.0001 20.625V24.375C15.0001 25.4088 14.1589 26.25 13.1251 26.25ZM11.2501 25H13.1251C13.4701 25 13.7501 24.72 13.7501 24.375V20.625C13.7501 20.28 13.4701 20 13.1251 20H11.2501V25Z" fill="white"/>
<path d="M16.2499 25.625C16.2499 25.97 16.5299 26.25 16.8749 26.25C17.2199 26.25 17.4999 25.97 17.4999 25.625V23.75H20.6249C20.9699 23.75 21.2498 23.47 21.2498 23.125C21.2498 22.78 20.9699 22.5 20.6249 22.5H17.4999V20.625C17.4999 20.28 17.7799 20 18.1249 20H20.6249C20.9699 20 21.2498 19.72 21.2498 19.375C21.2498 19.03 20.9699 18.75 20.6249 18.75H18.1249C17.0911 18.75 16.2499 19.5913 16.2499 20.625V25.625Z" fill="white"/>
</g>
</svg>
