<svg width="65" height="85" viewBox="0 0 65 85" fill="none" xmlns="http://www.w3.org/2000/svg">
<rect width="65" height="85" fill="white"/>
<path opacity="0.5" fill-rule="evenodd" clip-rule="evenodd" d="M38.61 50.0031C36.6409 51.6577 34.1004 52.6543 31.3272 52.6543C25.0713 52.6543 20 47.583 20 41.3272C20 35.0713 25.0713 30 31.3272 30C37.583 30 42.6543 35.0713 42.6543 41.3272C42.6543 44.1005 41.6577 46.641 40.0029 48.6101L45 53.6072L43.607 55.0001L38.61 50.0031ZM40.7313 41.3272C40.7313 46.5209 36.5209 50.7313 31.3272 50.7313C26.1334 50.7313 21.9231 46.5209 21.9231 41.3272C21.9231 36.1334 26.1334 31.9231 31.3272 31.9231C36.5209 31.9231 40.7313 36.1334 40.7313 41.3272Z" fill="#B9A195"/>
</svg>
