<svg width="24" height="14" viewBox="0 0 24 14" fill="none" xmlns="http://www.w3.org/2000/svg">
<path fill-rule="evenodd" clip-rule="evenodd" d="M19.1523 6.23144C19.1744 6.20062 19.2044 6.15878 19.2413 6.107C19.3282 5.98511 19.453 5.8088 19.6039 5.59238C19.9061 5.15902 20.3109 4.56758 20.7247 3.93169C21.1399 3.29369 21.5572 2.62172 21.8877 2.02499C22.1288 1.58969 22.2953 1.24375 22.391 1H20.0387C19.9581 1 19.9135 1.01034 19.8944 1.01616C19.8847 1.01914 19.8796 1.02157 19.8777 1.02249L19.876 1.02345L19.8733 1.02592C19.8713 1.02791 19.8677 1.032 19.8625 1.03916C19.8519 1.05381 19.8363 1.07961 19.8181 1.12187C19.8178 1.1226 19.8175 1.12334 19.8172 1.12408L19.8148 1.12974L19.8015 1.16109C19.79 1.18784 19.7735 1.22614 19.752 1.27494C19.7091 1.37251 19.6465 1.51219 19.5658 1.68545C19.4045 2.03158 19.1698 2.51388 18.8738 3.06346C18.2881 4.15077 17.4361 5.551 16.4105 6.67594L16.3919 6.69636L16.3722 6.71572C15.8143 7.26357 15.2501 7.79324 14.4465 7.79324C13.4558 7.79324 13.0275 6.83166 13.0275 6.05421V1H9.90163C10.2086 1.45951 10.4808 2.08627 10.5348 3.0502L10.5363 3.07813V6.90324C10.5363 7.30986 10.5125 7.80156 10.2915 8.19621C10.155 8.44012 9.94845 8.64256 9.67515 8.76454C9.43001 8.87395 9.19713 8.88827 9.05031 8.88827C8.65883 8.88827 8.33268 8.72192 8.11784 8.58317C7.88535 8.43303 7.66395 8.23674 7.45923 8.02615C7.04791 7.60302 6.61302 7.02738 6.18622 6.36491C5.32994 5.03579 4.4347 3.24524 3.76823 1.3379C3.71317 1.18686 3.67017 1.09162 3.63608 1.03021C3.63075 1.0206 3.62595 1.01241 3.62171 1.00548C3.6002 1.00311 3.56876 1.001 3.52512 1.001H1.04184C1.06667 1.12326 1.10304 1.27603 1.15372 1.45834C1.27554 1.89654 1.47406 2.48393 1.77436 3.1956C2.37448 4.61779 3.37371 6.51884 4.95707 8.69741L4.96373 8.70657C6.98778 11.5589 9.76401 13.0005 12.1544 13.0005C12.5416 13.0005 12.8046 12.9787 12.9803 12.948C12.9981 12.9449 13.0144 12.9418 13.0295 12.9387C13.0292 12.5208 13.0261 12.1799 13.0233 11.8766C13.0213 11.6599 13.0195 11.4623 13.019 11.2695C13.0179 10.8446 13.0231 10.4588 13.0703 10.1524C13.1163 9.85339 13.2368 9.37826 13.6868 9.06736C14.072 8.80128 14.5142 8.80132 14.7109 8.80134H14.7155C15.5207 8.80134 16.439 9.24824 18.0186 10.7418L18.0253 10.7481L18.0319 10.7545C18.495 11.2088 18.8606 11.5997 19.1598 11.9249C19.2218 11.9923 19.2798 12.0556 19.3344 12.1152C19.5517 12.3523 19.715 12.5304 19.8646 12.6778C20.0477 12.858 20.1492 12.929 20.2128 12.9617C20.2553 12.9836 20.3018 13.0005 20.4057 13.0005H22.8945C22.7847 12.7857 22.597 12.4934 22.3243 12.1338C21.963 11.6574 21.5139 11.1414 21.062 10.6514C20.6121 10.1635 20.1707 9.71355 19.8285 9.36884C19.7513 9.29104 19.6766 9.21608 19.608 9.14725C19.5289 9.06781 19.4579 8.99656 19.4006 8.93859C19.3458 8.8832 19.2958 8.83212 19.2554 8.78965L19.2519 8.78587C19.23 8.76288 19.1761 8.70633 19.1274 8.64361C18.8758 8.32463 18.6255 7.89722 18.6696 7.35465C18.7049 6.92085 18.934 6.56178 19.0505 6.37926C19.0576 6.36808 19.0643 6.35757 19.0705 6.34774L19.13 6.25376L19.1523 6.23144ZM19.9157 8.02828C19.9448 8.06846 20.0918 8.21598 20.314 8.43897C21.253 9.38131 23.5353 11.6716 23.9388 12.9064C24.1568 13.6325 23.7778 14.0005 23.0298 14.0005H20.4057C19.7055 14.0005 19.3523 13.615 18.588 12.7809C18.263 12.4262 17.8636 11.9903 17.3316 11.4684C15.7715 9.99335 15.1035 9.80134 14.7155 9.80134C14.0046 9.80134 14.0064 10.0004 14.0231 11.8506C14.0261 12.1789 14.0295 12.5591 14.0295 12.9995C14.0295 13.6325 13.8255 14.0005 12.1544 14.0005C9.37433 14.0005 6.31822 12.3434 4.14814 9.28532C0.892031 4.80517 0 1.41405 0 0.732025C0 0.346012 0.151005 0.000999962 0.900031 0.000999962H3.52512C4.19815 0.000999962 4.45115 0.28901 4.71016 1.00203C5.99321 4.67716 8.15828 7.88827 9.05031 7.88827C9.38533 7.88827 9.53633 7.73527 9.53633 6.90324V3.10611C9.47575 2.02422 9.09145 1.5565 8.80683 1.2101C8.63105 0.996168 8.49329 0.828508 8.49329 0.591021C8.49329 0.306011 8.7423 0 9.16132 0H13.2875C13.8405 0 14.0275 0.29301 14.0275 0.949033V6.05421C14.0275 6.60123 14.2825 6.79324 14.4465 6.79324C14.7795 6.79324 15.0615 6.60123 15.6715 6.00221C17.5616 3.92914 18.8977 0.731025 18.8977 0.731025C19.0627 0.345012 19.3707 0 20.0387 0H22.6628C23.4558 0 23.6198 0.402014 23.4558 0.949033L23.4538 0.950033C23.1238 2.45108 19.9207 6.87724 19.9157 6.88224C19.6387 7.32025 19.5277 7.53826 19.9157 8.02828Z" fill="white"/>
</svg>
