<svg width="25" height="25" viewBox="0 0 25 25" fill="none" xmlns="http://www.w3.org/2000/svg">
<path d="M2.85373 19.9856L2.93581 19.7409L2.78388 19.5322C1.34576 17.5573 0.5 15.1253 0.5 12.5C0.5 5.88227 5.88095 0.5 12.4969 0.5H12.5031C19.119 0.5 24.5 5.88379 24.5 12.5C24.5 19.1162 19.119 24.5 12.5031 24.5C10.0619 24.5 7.79974 23.7742 5.90269 22.5175L5.70276 22.3851L5.47432 22.4581L1.60986 23.6935L2.85373 19.9856Z" stroke="white"/>
<path d="M19.7764 17.6517C19.4748 18.5032 18.278 19.2095 17.3233 19.4157C16.6701 19.5548 15.817 19.6657 12.9451 18.4751C9.27171 16.9532 6.90609 13.2204 6.72171 12.9782C6.54515 12.736 5.23734 11.0017 5.23734 9.20791C5.23734 7.41416 6.14827 6.54072 6.51546 6.16572C6.81702 5.85791 7.31546 5.71729 7.79359 5.71729C7.94827 5.71729 8.08734 5.7251 8.21234 5.73135C8.57952 5.74697 8.7639 5.76885 9.00609 6.34854C9.30765 7.0751 10.042 8.86885 10.1295 9.05322C10.2186 9.2376 10.3076 9.4876 10.1826 9.72979C10.0655 9.97979 9.96234 10.0907 9.77796 10.3032C9.59359 10.5157 9.41858 10.6782 9.23421 10.9063C9.06546 11.1048 8.87484 11.3173 9.08734 11.6845C9.29984 12.0438 10.0342 13.2423 11.1155 14.2048C12.5108 15.447 13.642 15.8438 14.0467 16.0126C14.3483 16.1376 14.7076 16.1079 14.928 15.8735C15.2076 15.572 15.553 15.072 15.9045 14.5798C16.1545 14.2267 16.4701 14.1829 16.8014 14.3079C17.1389 14.4251 18.9248 15.3079 19.292 15.4907C19.6592 15.6751 19.9014 15.7626 19.9905 15.9173C20.078 16.072 20.078 16.7985 19.7764 17.6517Z" fill="white"/>
</svg>
