<svg width="24" height="20" viewBox="0 0 24 20" fill="none" xmlns="http://www.w3.org/2000/svg">
<path fill-rule="evenodd" clip-rule="evenodd" d="M15.5345 8.89488C16.2215 9.27695 16.2215 10.265 15.5345 10.6471L10.4029 13.5011C9.73472 13.8727 8.91318 13.3895 8.91318 12.625V6.917C8.91318 6.15242 9.73472 5.66927 10.4029 6.0409L15.5345 8.89488ZM15.0473 9.77098L9.91566 12.625V6.917L15.0473 9.77098Z" fill="white"/>
<path fill-rule="evenodd" clip-rule="evenodd" d="M0 5.16083C0 3.06217 1.61706 1.31943 3.71212 1.19673C6.2042 1.05076 9.47984 0.893066 12 0.893066C14.5202 0.893066 17.7958 1.05076 20.2879 1.19673C22.3829 1.31943 24 3.06217 24 5.16083V14.8974C24 17.0213 22.3442 18.7761 20.2225 18.8727C17.7383 18.9858 14.4974 19.1068 12 19.1068C9.50261 19.1068 6.26167 18.9858 3.77753 18.8727C1.65583 18.7761 0 17.0213 0 14.8974V5.16083ZM22.9975 5.16083V14.8974C22.9975 16.4924 21.7562 17.7993 20.1769 17.8712C17.695 17.9842 14.4732 18.1043 12 18.1043C9.52682 18.1043 6.30504 17.9842 3.82313 17.8712C2.24383 17.7993 1.00248 16.4924 1.00248 14.8974V5.16083C1.00248 3.58393 2.21472 2.28863 3.77074 2.19749C6.26006 2.0517 9.51102 1.89555 12 1.89555C14.489 1.89555 17.7399 2.0517 20.2293 2.19749C21.7853 2.28863 22.9975 3.58393 22.9975 5.16083Z" fill="white"/>
</svg>
