<svg width="19" height="19" viewBox="0 0 19 19" fill="none" xmlns="http://www.w3.org/2000/svg">
<path fill-rule="evenodd" clip-rule="evenodd" d="M17.1118 6.12733C17.9305 6.16183 18.5301 6.66783 18.4378 7.33483C18.3571 8.00183 17.6076 8.43883 16.7775 8.53083C16.593 8.55383 16.4085 8.57683 16.2125 8.58833C16.2413 8.59408 16.273 8.59696 16.3047 8.59983C16.3364 8.60271 16.3681 8.60558 16.397 8.61133C17.2156 8.70333 17.8152 9.15183 17.7229 9.81883C17.6307 10.4858 16.8812 10.9228 16.0741 11.0263C15.6936 11.0723 15.244 11.1068 14.7712 11.1298H14.7597C14.483 11.1413 14.1947 11.1528 13.8949 11.1528C13.3415 11.1758 12.6266 11.2103 12.0616 11.2448C11.6465 11.2793 11.5889 11.5668 11.635 11.8543C12.0385 12.8893 12.2576 14.0508 12.2115 15.2008C12.1769 16.2013 11.5312 17.1443 10.5973 17.2478C9.82474 17.3283 9.25976 16.7993 9.4673 16.1208C10.1015 13.9128 7.08054 11.2678 4.61307 9.78433V2.88433C6.52709 1.68833 9.62873 1.09033 13.2377 1.14783C13.3149 1.15188 13.3935 1.15451 13.4746 1.15721C13.6236 1.16219 13.7808 1.16743 13.9526 1.18233H14.0563C14.2563 1.1914 14.4707 1.20762 14.705 1.22534C14.7679 1.2301 14.8322 1.23497 14.898 1.23983C15.7167 1.30883 16.6737 1.82633 16.6276 2.49333C16.593 3.07983 16.1664 3.39033 15.6244 3.56283L15.6245 3.56283C15.9358 3.58583 16.2471 3.60883 16.5353 3.63183C17.354 3.71233 17.9536 4.16083 17.8844 4.82783C17.8037 5.49483 17.0657 5.94333 16.2586 6.05833C16.2471 6.05833 16.2327 6.06121 16.2183 6.06408C16.2038 6.06696 16.1894 6.06983 16.1779 6.06983C16.2245 6.07304 16.2706 6.07624 16.3163 6.07941C16.5986 6.09902 16.8637 6.11743 17.1118 6.12733ZM0.000976562 2.29785H2.30702C2.94119 2.29785 3.46005 2.81535 3.46005 3.44785V9.19784C3.46005 9.83034 2.94119 10.3478 2.30702 10.3478H0.000976562V2.29785Z" fill="#54C672"/>
</svg>
