<svg width="17" height="17" viewBox="0 0 17 17" fill="none" xmlns="http://www.w3.org/2000/svg">
<path fill-rule="evenodd" clip-rule="evenodd" d="M5.28469 2.10833H3.60416L7.09206 5.57654C7.28231 5.76629 7.39857 6.02983 7.39857 6.325C7.39857 6.90479 6.92295 7.37917 6.34163 7.37917C6.04569 7.37917 5.78145 7.26321 5.5912 7.06292L2.11388 3.59471V5.27083C2.11388 5.85063 1.63825 6.325 1.05694 6.325C0.475622 6.325 0 5.85063 0 5.27083V1.05417C0 0.474375 0.475622 0 1.05694 0H5.28469C5.86601 0 6.34163 0.474375 6.34163 1.05417C6.34163 1.63396 5.86601 2.10833 5.28469 2.10833ZM5.5912 9.79321C5.78145 9.60346 6.04569 9.4875 6.34163 9.4875C6.92295 9.4875 7.39857 9.96187 7.39857 10.5417C7.39857 10.8368 7.28231 11.1004 7.08149 11.2901L3.60416 14.7583H5.28469C5.86601 14.7583 6.34163 15.2327 6.34163 15.8125C6.34163 16.3923 5.86601 16.8667 5.28469 16.8667H1.05694C0.475622 16.8667 0 16.3923 0 15.8125V11.5958C0 11.016 0.475622 10.5417 1.05694 10.5417C1.63825 10.5417 2.11388 11.016 2.11388 11.5958V13.272L5.5912 9.79321ZM15.8541 10.5417C15.2728 10.5417 14.7971 11.016 14.7971 11.5958V13.272L11.3198 9.80375C11.1296 9.60346 10.8653 9.4875 10.5694 9.4875C9.98807 9.4875 9.51245 9.96187 9.51245 10.5417C9.51245 10.8368 9.62871 11.1004 9.81896 11.2901L13.3069 14.7583H11.6263C11.045 14.7583 10.5694 15.2327 10.5694 15.8125C10.5694 16.3923 11.045 16.8667 11.6263 16.8667H15.8541C16.4354 16.8667 16.911 16.3923 16.911 15.8125V11.5958C16.911 11.016 16.4354 10.5417 15.8541 10.5417ZM11.6263 0H15.8541C16.4354 0 16.911 0.474375 16.911 1.05417V5.27083C16.911 5.85063 16.4354 6.325 15.8541 6.325C15.2728 6.325 14.7971 5.85063 14.7971 5.27083V3.59471L11.3198 7.07346C11.1296 7.26321 10.8653 7.37917 10.5694 7.37917C9.98807 7.37917 9.51245 6.90479 9.51245 6.325C9.51245 6.02983 9.62871 5.76629 9.81896 5.57654L13.3069 2.10833H11.6263C11.045 2.10833 10.5694 1.63396 10.5694 1.05417C10.5694 0.474375 11.045 0 11.6263 0Z" fill="#54C672"/>
</svg>
