<svg width="19" height="19" viewBox="0 0 19 19" fill="none" xmlns="http://www.w3.org/2000/svg">
<path fill-rule="evenodd" clip-rule="evenodd" d="M1.33664 12.2726C0.517992 12.2381 -0.0815811 11.7321 0.0106621 11.0651C0.0913734 10.3981 0.840837 9.96107 1.67101 9.86907C1.8555 9.84607 2.03998 9.82307 2.236 9.81157C2.20717 9.80582 2.17546 9.80295 2.14375 9.80007C2.11205 9.7972 2.08034 9.79432 2.05151 9.78857C1.23287 9.69657 0.633293 9.24807 0.725536 8.58107C0.817778 7.91407 1.56724 7.47707 2.37436 7.37357C2.75486 7.32757 3.20454 7.29307 3.67727 7.27007H3.68881C3.96553 7.25857 4.25379 7.24707 4.55357 7.24707C5.10702 7.22407 5.8219 7.18957 6.38688 7.15507C6.80197 7.12057 6.85962 6.83307 6.8135 6.54557C6.40994 5.51057 6.19087 4.34907 6.23699 3.19907C6.27158 2.19857 6.91727 1.25557 7.85122 1.15207C8.62375 1.07157 9.18873 1.60057 8.98118 2.27907C8.34702 4.48707 11.3679 7.13207 13.8354 8.61557V15.5156C11.9214 16.7116 8.81976 17.3096 5.2108 17.2521C5.13361 17.248 5.05498 17.2454 4.97392 17.2427C4.82492 17.2377 4.66768 17.2325 4.49592 17.2176H4.39215C4.19214 17.2085 3.97779 17.1923 3.74346 17.1746C3.6806 17.1698 3.61629 17.1649 3.55044 17.1601C2.7318 17.0911 1.77479 16.5736 1.82091 15.9066C1.8555 15.3201 2.28212 15.0096 2.82404 14.8371L2.824 14.8371C2.5127 14.8141 2.20139 14.7911 1.91315 14.7681C1.0945 14.6876 0.49493 14.2391 0.564112 13.5721C0.644823 12.9051 1.38276 12.4566 2.18987 12.3416C2.2014 12.3416 2.21582 12.3387 2.23023 12.3358C2.24464 12.3329 2.25906 12.3301 2.27059 12.3301C2.22401 12.3269 2.17788 12.3237 2.1322 12.3205C1.84993 12.3009 1.58474 12.2825 1.33664 12.2726ZM18.4475 16.1021H16.1415C15.5073 16.1021 14.9884 15.5846 14.9884 14.9521V9.20206C14.9884 8.56956 15.5073 8.05206 16.1415 8.05206H18.4475V16.1021Z" fill="#54C672"/>
</svg>
