<svg width="19" height="19" viewBox="0 0 19 19" fill="none" xmlns="http://www.w3.org/2000/svg">
<path fill-rule="evenodd" clip-rule="evenodd" d="M1.88815 12.2726C1.06951 12.2381 0.469933 11.7321 0.562176 11.0651C0.642887 10.3981 1.39235 9.96107 2.22253 9.86907C2.40701 9.84607 2.5915 9.82307 2.78751 9.81157C2.75868 9.80582 2.72697 9.80295 2.69527 9.80007C2.66356 9.7972 2.63185 9.79432 2.60303 9.78857C1.78438 9.69657 1.18481 9.24807 1.27705 8.58107C1.36929 7.91407 2.11876 7.47707 2.92587 7.37357C3.30637 7.32757 3.75605 7.29307 4.22879 7.27007H4.24032C4.51704 7.25857 4.8053 7.24707 5.10509 7.24707C5.65854 7.22407 6.37341 7.18957 6.93839 7.15507C7.35348 7.12057 7.41113 6.83307 7.36501 6.54557C6.96145 5.51057 6.74238 4.34907 6.7885 3.19907C6.82309 2.19857 7.46879 1.25557 8.40273 1.15207C9.17526 1.07157 9.74024 1.60057 9.5327 2.27907C8.89853 4.48707 11.9195 7.13207 14.3869 8.61557V15.5156C12.4729 16.7116 9.37127 17.3096 5.76231 17.2521C5.68512 17.248 5.6065 17.2454 5.52543 17.2427C5.37643 17.2377 5.21919 17.2325 5.04744 17.2176H4.94366C4.74365 17.2085 4.52931 17.1923 4.29497 17.1746C4.23211 17.1698 4.16781 17.1649 4.10196 17.1601C3.28331 17.0911 2.3263 16.5736 2.37242 15.9066C2.40701 15.3201 2.83363 15.0096 3.37555 14.8371L3.37547 14.8371C3.06418 14.8141 2.7529 14.7911 2.46466 14.7681C1.64602 14.6876 1.04644 14.2391 1.11563 13.5721C1.19634 12.9051 1.93427 12.4566 2.74139 12.3416C2.75292 12.3416 2.76733 12.3387 2.78174 12.3358C2.79616 12.3329 2.81057 12.3301 2.8221 12.3301C2.77552 12.3269 2.72939 12.3237 2.68371 12.3205C2.40144 12.3009 2.13625 12.2825 1.88815 12.2726ZM18.999 16.1021H16.693C16.0588 16.1021 15.54 15.5846 15.54 14.9521V9.20206C15.54 8.56956 16.0588 8.05206 16.693 8.05206H18.999V16.1021Z" fill="#54C672"/>
</svg>
