<svg width="288" height="36" viewBox="0 0 288 36" fill="none" xmlns="http://www.w3.org/2000/svg">
<path d="M41.4025 21.9337C41.4025 24.1577 40.8548 26.1411 39.7593 27.8839C38.6639 29.6266 37.1037 31.1038 35.0788 32.3154C33.0705 33.5104 30.6307 34.4233 27.7593 35.054C24.9046 35.6847 21.7012 36.0001 18.1494 36.0001C16.5892 36.0001 14.9461 35.9337 13.2199 35.8009C11.5104 35.6847 9.83402 35.5104 8.19087 35.2781C6.56431 35.0623 5.03734 34.8133 3.60996 34.5312C2.18257 34.2324 0.979253 33.9088 0 33.5602V25.444C1.06224 25.8922 2.24066 26.3154 3.53527 26.7138C4.84647 27.1121 6.26556 27.4689 7.79253 27.7843C9.3195 28.083 10.9544 28.3237 12.6971 28.5063C14.4564 28.6723 16.3154 28.7552 18.2739 28.7552C20.1162 28.7552 21.7344 28.6474 23.1286 28.4316C24.5394 28.2158 25.7593 27.9254 26.7884 27.5602C27.8174 27.1951 28.6722 26.7801 29.3527 26.3154C30.0332 25.8341 30.5809 25.3445 30.9958 24.8465C31.4108 24.332 31.7012 23.8258 31.8672 23.3279C32.0498 22.8299 32.1411 22.3652 32.1411 21.9337V18.9212C30.4481 20.166 28.4315 21.1951 26.0913 22.0084C23.751 22.805 21.0871 23.2034 18.0996 23.2034C14.6307 23.2034 11.7344 22.8714 9.41079 22.2075C7.10373 21.527 5.25311 20.5561 3.85892 19.2947C2.46473 18.0167 1.46888 16.4648 0.871369 14.6391C0.290456 12.8133 0 10.7552 0 8.46479V0.87143H9.28631V7.54363C9.28631 8.88803 9.46058 10.083 9.80913 11.1287C10.1743 12.1743 10.7386 13.054 11.5021 13.7677C12.2822 14.4648 13.2863 14.9959 14.5145 15.3611C15.7427 15.7262 17.2282 15.9088 18.971 15.9088C20.4481 15.9088 21.8423 15.7262 23.1535 15.3611C24.4813 14.9959 25.7012 14.5146 26.8133 13.9171C27.9253 13.3196 28.9295 12.6391 29.8257 11.8756C30.722 11.1121 31.4938 10.332 32.1411 9.53533V0.87143H41.4025V21.9337Z" fill="#F43B7F"/>
<path d="M79.0725 35.0789V31.7179C77.8941 32.3652 76.6244 32.9378 75.2634 33.4357C73.919 33.9337 72.5165 34.3569 71.0559 34.7055C69.5953 35.054 68.085 35.3113 66.5248 35.4772C64.9812 35.6598 63.4211 35.7511 61.8443 35.7511C60.002 35.7511 58.2178 35.5768 56.4916 35.2283C54.7821 34.8797 53.2634 34.3154 51.9356 33.5353C50.6078 32.7552 49.5373 31.7345 48.724 30.4731C47.9273 29.2117 47.529 27.6681 47.529 25.8424C47.529 23.5353 48.1597 21.6183 49.4211 20.0913C50.6825 18.5478 52.6078 17.2864 55.197 16.3071C57.7862 15.3279 61.0559 14.5727 65.0061 14.0416C68.9729 13.5104 73.6617 13.0955 79.0725 12.7967V12.0747C79.0725 11.5104 78.9231 10.9544 78.6244 10.4067C78.3256 9.84238 77.7779 9.35276 76.9812 8.93782C76.2012 8.50628 75.1223 8.15774 73.7447 7.89218C72.3837 7.62662 70.641 7.49384 68.5165 7.49384C66.8402 7.49384 65.1804 7.58512 63.5373 7.7677C61.9107 7.93367 60.3339 8.16604 58.807 8.46479C57.2966 8.76355 55.8609 9.11209 54.4999 9.51043C53.1389 9.90877 51.9024 10.3237 50.7904 10.7552V2.53948C51.9522 2.24072 53.2551 1.95027 54.6991 1.66811C56.1431 1.38595 57.6451 1.14529 59.2053 0.946119C60.7655 0.730351 62.3422 0.564376 63.9356 0.448194C65.529 0.315413 67.0559 0.249023 68.5165 0.249023C71.3879 0.249023 74.0352 0.489687 76.4584 0.971015C78.8817 1.43575 80.9646 2.16604 82.7074 3.16189C84.4667 4.15774 85.836 5.41915 86.8153 6.94612C87.8111 8.47309 88.309 10.2905 88.309 12.3984V35.0789H79.0725ZM79.0725 19.4689C75.5207 19.6017 72.4999 19.7926 70.0103 20.0416C67.5373 20.2905 65.4792 20.581 63.836 20.9129C62.1929 21.2449 60.8983 21.6017 59.9522 21.9835C59.0227 22.3652 58.3256 22.7552 57.8609 23.1536C57.3962 23.5519 57.1057 23.9503 56.9895 24.3486C56.89 24.747 56.8402 25.1121 56.8402 25.444C56.8402 25.8424 56.948 26.2324 57.1638 26.6142C57.3796 26.9793 57.753 27.303 58.2841 27.5851C58.8319 27.8673 59.5539 28.0913 60.4501 28.2573C61.3464 28.4233 62.475 28.5063 63.836 28.5063C65.3464 28.5063 66.8236 28.3901 68.2675 28.1577C69.7115 27.9254 71.0808 27.61 72.3754 27.2117C73.67 26.7967 74.8817 26.3154 76.0103 25.7677C77.1555 25.2034 78.1763 24.6059 79.0725 23.9752V19.4689Z" fill="#F43B7F"/>
<path d="M237.394 21.9336C237.394 24.1577 236.846 26.1411 235.751 27.8838C234.655 29.6266 233.095 31.1037 231.07 32.3154C229.062 33.5104 226.622 34.4232 223.751 35.0539C220.896 35.6847 217.693 36 214.141 36C212.581 36 210.937 35.9336 209.211 35.8008C207.502 35.6847 205.825 35.5104 204.182 35.278C202.556 35.0622 201.029 34.8133 199.601 34.5311C198.174 34.2324 196.971 33.9087 195.991 33.5602V25.444C197.054 25.8921 198.232 26.3154 199.527 26.7137C200.838 27.112 202.257 27.4689 203.784 27.7842C205.311 28.083 206.946 28.3237 208.688 28.5062C210.448 28.6722 212.307 28.7552 214.265 28.7552C216.108 28.7552 217.726 28.6473 219.12 28.4315C220.531 28.2158 221.751 27.9253 222.78 27.5602C223.809 27.195 224.664 26.7801 225.344 26.3154C226.025 25.834 226.572 25.3444 226.987 24.8465C227.402 24.332 227.693 23.8257 227.859 23.3278C228.041 22.8299 228.132 22.3651 228.132 21.9336V18.9212C226.439 20.166 224.423 21.195 222.083 22.0083C219.742 22.805 217.078 23.2033 214.091 23.2033C210.622 23.2033 207.726 22.8714 205.402 22.2075C203.095 21.527 201.244 20.556 199.85 19.2946C198.456 18.0166 197.46 16.4647 196.863 14.639C196.282 12.8133 195.991 10.7552 195.991 8.46473V0.871369H205.278V7.54357C205.278 8.88797 205.452 10.083 205.8 11.1286C206.166 12.1743 206.73 13.0539 207.493 13.7676C208.273 14.4647 209.278 14.9959 210.506 15.361C211.734 15.7261 213.22 15.9087 214.962 15.9087C216.439 15.9087 217.834 15.7261 219.145 15.361C220.473 14.9959 221.693 14.5145 222.805 13.917C223.917 13.3195 224.921 12.639 225.817 11.8755C226.713 11.112 227.485 10.332 228.132 9.53527V0.871369H237.394V21.9336Z" fill="#F7B43F"/>
<path d="M284.201 33.3859C281.396 34.3154 278.591 34.9793 275.786 35.3776C272.997 35.7925 270.143 36 267.222 36C263.487 36 260.159 35.6017 257.238 34.805C254.334 33.9917 251.885 32.8216 249.894 31.2946C247.902 29.7676 246.383 27.9004 245.338 25.6929C244.292 23.4855 243.769 20.9876 243.769 18.1992C243.769 15.61 244.292 13.2116 245.338 11.0041C246.4 8.78008 247.894 6.85477 249.819 5.22822C251.761 3.58506 254.101 2.30705 256.84 1.39419C259.578 0.46473 262.632 0 266.002 0C269.105 0 271.944 0.423237 274.516 1.26971C277.105 2.09959 279.321 3.3361 281.163 4.97925C283.022 6.62241 284.458 8.6473 285.471 11.0539C286.5 13.4606 287.014 16.2324 287.014 19.3693V21.6598H253.305C253.603 22.7386 254.093 23.7261 254.773 24.6224C255.471 25.5187 256.408 26.2822 257.587 26.9129C258.765 27.5436 260.209 28.0332 261.919 28.3817C263.645 28.7303 265.703 28.9046 268.093 28.9046C269.786 28.9046 271.446 28.805 273.072 28.6058C274.699 28.39 276.217 28.1162 277.628 27.7842C279.039 27.4357 280.309 27.0539 281.437 26.639C282.583 26.2241 283.504 25.8091 284.201 25.3942V33.3859ZM277.827 14.888C277.744 14.0415 277.487 13.1701 277.056 12.2739C276.641 11.361 275.977 10.5394 275.064 9.80913C274.151 9.07884 272.956 8.48133 271.479 8.0166C270.002 7.53527 268.159 7.29461 265.952 7.29461C263.877 7.29461 262.085 7.55187 260.574 8.06639C259.064 8.58091 257.794 9.21992 256.765 9.9834C255.753 10.7469 254.964 11.5685 254.4 12.4481C253.836 13.3278 253.471 14.1411 253.305 14.888H277.827Z" fill="#F7B43F"/>
<path d="M137.456 21.9336C137.456 24.1577 136.909 26.1411 135.813 27.8838C134.718 29.6266 133.158 31.1037 131.133 32.3154C129.124 33.5104 126.685 34.4232 123.813 35.0539C120.958 35.6847 117.755 36 114.203 36C112.643 36 111 35.9336 109.274 35.8008C107.564 35.6847 105.888 35.5104 104.245 35.278C102.618 35.0622 101.091 34.8133 99.6639 34.5311C98.2365 34.2324 97.0331 33.9087 96.0539 33.5602V25.444C97.1161 25.8921 98.2946 26.3154 99.5892 26.7137C100.9 27.112 102.319 27.4689 103.846 27.7842C105.373 28.083 107.008 28.3237 108.751 28.5062C110.51 28.6722 112.369 28.7552 114.328 28.7552C116.17 28.7552 117.788 28.6473 119.183 28.4315C120.593 28.2158 121.813 27.9253 122.842 27.5602C123.871 27.195 124.726 26.7801 125.407 26.3154C126.087 25.834 126.635 25.3444 127.05 24.8465C127.465 24.332 127.755 23.8257 127.921 23.3278C128.104 22.8299 128.195 22.3651 128.195 21.9336V18.9212C126.502 20.166 124.485 21.195 122.145 22.0083C119.805 22.805 117.141 23.2033 114.153 23.2033C110.685 23.2033 107.788 22.8714 105.465 22.2075C103.158 21.527 101.307 20.556 99.9128 19.2946C98.5186 18.0166 97.5228 16.4647 96.9253 14.639C96.3444 12.8133 96.0539 10.7552 96.0539 8.46473V0.871369H105.34V7.54357C105.34 8.88797 105.514 10.083 105.863 11.1286C106.228 12.1743 106.792 13.0539 107.556 13.7676C108.336 14.4647 109.34 14.9959 110.568 15.361C111.797 15.7261 113.282 15.9087 115.025 15.9087C116.502 15.9087 117.896 15.7261 119.207 15.361C120.535 14.9959 121.755 14.5145 122.867 13.917C123.979 13.3195 124.983 12.639 125.88 11.8755C126.776 11.112 127.548 10.332 128.195 9.53527V0.871369H137.456V21.9336Z" fill="white"/>
<path d="M190.388 18C190.388 20.9378 189.848 23.5353 188.77 25.7925C187.691 28.0332 186.147 29.9087 184.139 31.4191C182.131 32.9295 179.691 34.0747 176.819 34.8548C173.965 35.6183 170.753 36 167.185 36C163.616 36 160.388 35.6183 157.5 34.8548C154.628 34.0747 152.18 32.9295 150.155 31.4191C148.131 29.9087 146.57 28.0332 145.475 25.7925C144.38 23.5353 143.832 20.9378 143.832 18C143.832 15.0622 144.38 12.473 145.475 10.2324C146.57 7.9751 148.131 6.09129 150.155 4.58091C152.18 3.07054 154.628 1.93361 157.5 1.17012C160.388 0.390042 163.616 0 167.185 0C170.753 0 173.965 0.390042 176.819 1.17012C179.691 1.93361 182.131 3.07054 184.139 4.58091C186.147 6.09129 187.691 7.9751 188.77 10.2324C189.848 12.473 190.388 15.0622 190.388 18ZM181.052 18C181.052 16.722 180.844 15.4523 180.429 14.1909C180.031 12.9129 179.309 11.7676 178.263 10.7552C177.234 9.74274 175.824 8.92116 174.031 8.29046C172.238 7.65975 169.956 7.3444 167.185 7.3444C165.326 7.3444 163.691 7.49378 162.28 7.79253C160.869 8.07469 159.649 8.47303 158.62 8.98755C157.591 9.50208 156.728 10.1079 156.031 10.805C155.334 11.4855 154.778 12.2241 154.363 13.0207C153.948 13.8008 153.649 14.6224 153.467 15.4855C153.301 16.332 153.218 17.1701 153.218 18C153.218 18.8465 153.301 19.7012 153.467 20.5643C153.649 21.4274 153.948 22.2573 154.363 23.0539C154.778 23.834 155.334 24.5643 156.031 25.2448C156.728 25.9253 157.591 26.5228 158.62 27.0373C159.649 27.5353 160.869 27.9336 162.28 28.2324C163.691 28.5145 165.326 28.6556 167.185 28.6556C169.956 28.6556 172.238 28.3403 174.031 27.7095C175.824 27.0788 177.234 26.2573 178.263 25.2448C179.309 24.2324 180.031 23.0954 180.429 21.834C180.844 20.556 181.052 19.278 181.052 18Z" fill="white"/>
<path fill-rule="evenodd" clip-rule="evenodd" d="M163.253 12.0127C162.418 12.0127 161.736 12.6956 161.736 13.5302C161.736 14.3648 162.418 15.0477 163.253 15.0477C164.088 15.0477 164.771 14.3648 164.771 13.5302C164.771 12.6956 164.088 12.0127 163.253 12.0127ZM161.736 18.0826C161.736 17.248 162.418 16.5652 163.253 16.5652C164.088 16.5652 164.771 17.248 164.771 18.0826C164.771 18.9173 164.088 19.6001 163.253 19.6001C162.418 19.6001 161.736 18.9173 161.736 18.0826ZM161.736 22.6351C161.736 21.8005 162.418 21.1176 163.253 21.1176C164.088 21.1176 164.771 21.8005 164.771 22.6351C164.771 23.4697 164.088 24.1526 163.253 24.1526C162.418 24.1526 161.736 23.4697 161.736 22.6351ZM170.841 18.0826C170.841 17.248 171.523 16.5652 172.358 16.5652C173.193 16.5652 173.875 17.248 173.875 18.0826C173.875 18.9173 173.193 19.6001 172.358 19.6001C171.523 19.6001 170.841 18.9173 170.841 18.0826ZM167.806 18.8414C166.971 18.8414 166.288 19.5243 166.288 20.3589C166.288 21.1935 166.971 21.8764 167.806 21.8764C168.64 21.8764 169.323 21.1935 169.323 20.3589C169.323 19.5243 168.64 18.8414 167.806 18.8414ZM166.288 15.8064C166.288 14.9718 166.971 14.2889 167.806 14.2889C168.64 14.2889 169.323 14.9718 169.323 15.8064C169.323 16.641 168.64 17.3239 167.806 17.3239C166.971 17.3239 166.288 16.641 166.288 15.8064Z" fill="white"/>
</svg>
