<svg width="54" height="46" viewBox="0 0 54 46" fill="none" xmlns="http://www.w3.org/2000/svg">
<path d="M0 8C0 3.58172 3.58172 0 8 0H53.112V46H8C3.58172 46 0 42.4183 0 38V8Z" fill="#005440"/>
<path fill-rule="evenodd" clip-rule="evenodd" d="M19.9173 11.2441C18.3106 11.2441 16.9961 12.5091 16.9961 14.0553C16.9961 15.6014 18.3106 16.8664 19.9173 16.8664C21.5239 16.8664 22.8384 15.6014 22.8384 14.0553C22.8384 12.5091 21.5239 11.2441 19.9173 11.2441ZM16.9961 22.4886C16.9961 20.9425 18.3106 19.6775 19.9173 19.6775C21.5239 19.6775 22.8384 20.9425 22.8384 22.4886C22.8384 24.0347 21.5239 25.2997 19.9173 25.2997C18.3106 25.2997 16.9961 24.0347 16.9961 22.4886ZM16.9961 30.9219C16.9961 29.3758 18.3106 28.1108 19.9173 28.1108C21.5239 28.1108 22.8384 29.3758 22.8384 30.9219C22.8384 32.468 21.5239 33.733 19.9173 33.733C18.3106 33.733 16.9961 32.468 16.9961 30.9219ZM34.5231 22.4886C34.5231 20.9425 35.8376 19.6775 37.4442 19.6775C39.0509 19.6775 40.3654 20.9425 40.3654 22.4886C40.3654 24.0347 39.0509 25.2997 37.4442 25.2997C35.8376 25.2997 34.5231 24.0347 34.5231 22.4886ZM28.6807 23.8941C27.0741 23.8941 25.7596 25.1591 25.7596 26.7053C25.7596 28.2514 27.0741 29.5164 28.6807 29.5164C30.2874 29.5164 31.6019 28.2514 31.6019 26.7053C31.6019 25.1591 30.2874 23.8941 28.6807 23.8941ZM25.7596 18.2719C25.7596 16.7258 27.0741 15.4608 28.6807 15.4608C30.2874 15.4608 31.6019 16.7258 31.6019 18.2719C31.6019 19.818 30.2874 21.083 28.6807 21.083C27.0741 21.083 25.7596 19.818 25.7596 18.2719Z" fill="#F2F2F2"/>
</svg>
