<svg width="18" height="18" viewBox="0 0 18 18" fill="none" xmlns="http://www.w3.org/2000/svg">
<path fill-rule="evenodd" clip-rule="evenodd" d="M2.36339 0.487305C1.20076 0.487305 0.249512 1.45714 0.249512 2.64249C0.249512 3.82784 1.20076 4.79768 2.36339 4.79768C3.52602 4.79768 4.47727 3.82784 4.47727 2.64249C4.47727 1.45714 3.52602 0.487305 2.36339 0.487305ZM0.249512 9.10805C0.249512 7.92269 1.20076 6.95286 2.36339 6.95286C3.52602 6.95286 4.47727 7.92269 4.47727 9.10805C4.47727 10.2934 3.52602 11.2632 2.36339 11.2632C1.20076 11.2632 0.249512 10.2934 0.249512 9.10805ZM0.249512 15.5736C0.249512 14.3882 1.20076 13.4184 2.36339 13.4184C3.52602 13.4184 4.47727 14.3882 4.47727 15.5736C4.47727 16.759 3.52602 17.7288 2.36339 17.7288C1.20076 17.7288 0.249512 16.759 0.249512 15.5736ZM12.9328 9.10805C12.9328 7.92269 13.884 6.95286 15.0466 6.95286C16.2093 6.95286 17.1605 7.92269 17.1605 9.10805C17.1605 10.2934 16.2093 11.2632 15.0466 11.2632C13.884 11.2632 12.9328 10.2934 12.9328 9.10805ZM8.70502 10.1856C7.54239 10.1856 6.59114 11.1555 6.59114 12.3408C6.59114 13.5262 7.54239 14.496 8.70502 14.496C9.86765 14.496 10.8189 13.5262 10.8189 12.3408C10.8189 11.1555 9.86765 10.1856 8.70502 10.1856ZM6.59114 5.87527C6.59114 4.68992 7.54239 3.72008 8.70502 3.72008C9.86765 3.72008 10.8189 4.68992 10.8189 5.87527C10.8189 7.06062 9.86765 8.03045 8.70502 8.03045C7.54239 8.03045 6.59114 7.06062 6.59114 5.87527Z" fill="#F2F2F2"/>
</svg>
